<svg xmlns="http://www.w3.org/2000/svg" width="16" height="16" viewBox="0 0 16 16" fill="none">
  <rect opacity="0.01" width="16" height="16" fill="red"/>
  <path fill-rule="evenodd" clip-rule="evenodd" d="M8 1C4.13438 1 1 4.13438 1 8C1 11.8656 4.13438 15 8 15C11.8656 15 15 11.8656 15 8C15 4.13438 11.8656 1 8 1ZM8 13.8125C4.79063 13.8125 2.1875 11.2094 2.1875 8C2.1875 4.79063 4.79063 2.1875 8 2.1875C11.2094 2.1875 13.8125 4.79063 13.8125 8C13.8125 11.2094 11.2094 13.8125 8 13.8125ZM10.5844 5.40312C10.6531 5.40312 10.7094 5.45937 10.7094 5.52812C10.7094 5.55781 10.7 5.5875 10.6812 5.60938L8.64844 8.03125L10.6781 10.4516C10.6969 10.475 10.7078 10.5031 10.7078 10.5328C10.7078 10.6031 10.6516 10.6578 10.5828 10.6578L9.55156 10.6531L8 8.80312L6.44844 10.6547L5.41563 10.6594C5.34688 10.6594 5.29063 10.6031 5.29063 10.5344C5.29063 10.5047 5.30156 10.4766 5.32031 10.4531L7.35313 8.03281L5.32031 5.61094C5.30156 5.5875 5.29063 5.55937 5.29063 5.52969C5.29063 5.45937 5.34688 5.40469 5.41563 5.40469L6.44844 5.40937L8 7.25937L9.55313 5.40781L10.5844 5.40312Z" fill="red"/>
</svg>
