<svg xmlns="http://www.w3.org/2000/svg" width="16" height="16" viewBox="0 0 16 16" fill="none">
  <rect opacity="0.01" width="16" height="16" fill="deepskyblue"/>
  <path fill-rule="evenodd" clip-rule="evenodd" d="M1 8C1 4.13438 4.13438 1 8 1C11.8656 1 15 4.13438 15 8C15 11.8656 11.8656 15 8 15C4.13438 15 1 11.8656 1 8ZM2.1875 8C2.1875 11.2094 4.79063 13.8125 8 13.8125C11.2094 13.8125 13.8125 11.2094 13.8125 8C13.8125 4.79063 11.2094 2.1875 8 2.1875C4.79063 2.1875 2.1875 4.79063 2.1875 8ZM7.25 5.25C7.25 5.66421 7.58579 6 8 6C8.41421 6 8.75 5.66421 8.75 5.25C8.75 4.83579 8.41421 4.5 8 4.5C7.58579 4.5 7.25 4.83579 7.25 5.25ZM7.5 7.125C7.5 7.05625 7.55625 7 7.625 7H8.375C8.44375 7 8.5 7.05625 8.5 7.125V11.375C8.5 11.4438 8.44375 11.5 8.375 11.5H7.625C7.55625 11.5 7.5 11.4438 7.5 11.375V7.125Z" fill="deepskyblue"/>
</svg>
