<svg xmlns="http://www.w3.org/2000/svg" width="16" height="16" viewBox="0 0 16 16" fill="none">
  <rect opacity="0.01" width="16" height="16" fill="lightgreen"/>
  <path fill-rule="evenodd" clip-rule="evenodd" d="M8 1C4.13438 1 1 4.13438 1 8C1 11.8656 4.13438 15 8 15C11.8656 15 15 11.8656 15 8C15 4.13438 11.8656 1 8 1ZM8 13.8125C4.79063 13.8125 2.1875 11.2094 2.1875 8C2.1875 4.79063 4.79063 2.1875 8 2.1875C11.2094 2.1875 13.8125 4.79063 13.8125 8C13.8125 11.2094 11.2094 13.8125 8 13.8125ZM10.1891 5.51562H10.9219C11.0234 5.51562 11.0828 5.63125 11.0219 5.71406L7.73125 10.2766C7.53281 10.5531 7.12187 10.5531 6.92344 10.2766L4.97656 7.57656C4.91719 7.49375 4.97656 7.37813 5.07812 7.37813H5.81094C5.97188 7.37813 6.12187 7.45625 6.21562 7.58594L7.32812 9.12969L9.78438 5.72344C9.87813 5.59219 10.0297 5.51562 10.1891 5.51562Z" fill="lightgreen"/>
</svg>
