<svg t="1694666271293" class="icon" viewBox="0 0 1024 1024" version="1.1"
  xmlns="http://www.w3.org/2000/svg" p-id="4026" width="64" height="64">
  <path
    d="M511.9943802 2.66666667C233.64211906 2.66666667 8 228.30878573 8 506.66104687s225.64211906 503.9943802 503.9943802 503.99438119 503.9943802-225.64211906 503.99438119-503.99438119S790.34664233 2.66666667 511.9943802 2.66666667z m-3.19182904 781.09913109a38.09965556 38.09965556 0 0 1-38.09965557-38.09965556 38.09965556 38.09965556 0 0 1 38.09965557-38.09965458 38.11089417 38.11089417 0 0 1 0 76.21054974z m158.9283862-339.76126406q-16.7571052 30.14255967-65.4325058 73.25473641c-21.8033422 19.30832072-35.96427647 33.55916583-42.70757892 42.70757793a94.93445095 94.93445095 0 0 0-15.0038467 31.64856385q-3.61890506 13.32926044-4.94508755 39.07743426a19.96017384 19.96017384 0 0 1-19.94893523 18.91496152h-25.23118697a20.00512927 20.00512927 0 0 1-19.99389066-19.96017384v-0.13486529q0-39.39212123 11.13768731-68.01743812 8.1593948-21.57856608 26.38878736-43.50553594 13.4191703-16.01534222 48.12469791-46.68612637t45.15764498-48.85522228a78.33469022 78.33469022 0 0 0 10.42964016-39.76300322q0-39.06619566-30.45724664-68.55690221t-74.73826238-29.55814017q-42.70757794 0-71.37785025 26.74843074-20.87051892 19.54433644-31.27768185 55.07029926a34.86511842 34.86511842 0 1 1-66.84859913-19.83654619q14.11597884-47.37169533 46.96709752-76.42408823 45.92188519-40.45981078 121.37943332-40.51600481 79.93060425 0 127.51583808 43.50553495t47.58523383 105.20674861a133.23640542 133.23640542 0 0 1-16.72338839 65.67975914z"
    p-id="4027" fill="#ffffff"></path>
</svg>
