<svg xmlns="http://www.w3.org/2000/svg" width="51" height="64" viewBox="0 0 51 64" fill="none">
  <g opacity="0.8">
    <path
      d="M22.298 38.826L22.264 32.332H24.474C25.7433 32.332 26.7633 31.992 27.534 31.312C28.3047 30.6093 28.69 29.6687 28.69 28.49C28.69 27.3113 28.3047 26.3707 27.534 25.668C26.7633 24.9653 25.732 24.614 24.44 24.614H19.782V21.18H24.338C25.9473 21.18 27.3527 21.486 28.554 22.098C29.7553 22.6873 30.6847 23.526 31.342 24.614C32.022 25.702 32.362 26.994 32.362 28.49C32.362 29.8273 32.0787 31.0173 31.512 32.06C30.9453 33.1027 30.1633 33.93 29.166 34.542C28.1913 35.1313 27.0467 35.4487 25.732 35.494V38.826H22.298ZM23.488 46.17C22.8307 46.17 22.298 45.9773 21.89 45.592C21.482 45.184 21.278 44.6627 21.278 44.028C21.278 43.3933 21.482 42.8833 21.89 42.498C22.298 42.09 22.8307 41.886 23.488 41.886H24.508C25.188 41.886 25.7207 42.09 26.106 42.498C26.4913 42.8833 26.684 43.382 26.684 43.994C26.684 44.6287 26.48 45.15 26.072 45.558C25.664 45.966 25.1313 46.17 24.474 46.17H23.488Z"
      fill="#0085FF" />
    <path fill-rule="evenodd" clip-rule="evenodd"
      d="M39.875 1.25419L49.837 11.7627H42.875C41.2181 11.7627 39.875 10.4195 39.875 8.7627V1.25419Z"
      fill="#0085FF" />
    <path fill-rule="evenodd" clip-rule="evenodd"
      d="M39.16 0.5L50.5 12.462V53.5C50.5 59.0228 46.0228 63.5 40.5 63.5H10.5C4.97715 63.5 0.5 59.0228 0.5 53.5V10.5C0.5 4.97715 4.97715 0.5 10.5 0.5H39.16Z"
      stroke="#0085FF" />
    <path
      d="M22.298 38.826L22.264 32.332H24.474C25.7433 32.332 26.7633 31.992 27.534 31.312C28.3047 30.6093 28.69 29.6687 28.69 28.49C28.69 27.3113 28.3047 26.3707 27.534 25.668C26.7633 24.9653 25.732 24.614 24.44 24.614H19.782V21.18H24.338C25.9473 21.18 27.3527 21.486 28.554 22.098C29.7553 22.6873 30.6847 23.526 31.342 24.614C32.022 25.702 32.362 26.994 32.362 28.49C32.362 29.8273 32.0787 31.0173 31.512 32.06C30.9453 33.1027 30.1633 33.93 29.166 34.542C28.1913 35.1313 27.0467 35.4487 25.732 35.494V38.826H22.298ZM23.488 46.17C22.8307 46.17 22.298 45.9773 21.89 45.592C21.482 45.184 21.278 44.6627 21.278 44.028C21.278 43.3933 21.482 42.8833 21.89 42.498C22.298 42.09 22.8307 41.886 23.488 41.886H24.508C25.188 41.886 25.7207 42.09 26.106 42.498C26.4913 42.8833 26.684 43.382 26.684 43.994C26.684 44.6287 26.48 45.15 26.072 45.558C25.664 45.966 25.1313 46.17 24.474 46.17H23.488Z"
      stroke="#0085FF" />
    <path fill-rule="evenodd" clip-rule="evenodd"
      d="M39.875 1.25419L49.837 11.7627H42.875C41.2181 11.7627 39.875 10.4195 39.875 8.7627V1.25419Z"
      stroke="#0085FF" />
  </g>
</svg>