<svg width="35" height="19" viewBox="0 0 35 19" fill="none" xmlns="http://www.w3.org/2000/svg">
<path d="M8.75136 12.7752C8.52646 13.0329 8.23909 13.1617 7.88925 13.1617C7.53941 13.1617 7.24787 13.0729 7.01464 12.8951C6.78974 12.7085 6.67729 12.4553 6.67729 12.1353V10.0692C6.67729 9.7493 6.78974 9.50048 7.01464 9.32275C7.24787 9.13613 7.53941 9.04283 7.88925 9.04283C8.23909 9.04283 8.52646 9.17612 8.75136 9.44272C8.98459 9.70043 9.1012 10.0514 9.1012 10.4958V11.7088C9.1012 12.1531 8.98459 12.5086 8.75136 12.7752Z" fill="#00B2FF"/>
<path d="M14.2414 9.29609C14.4579 9.0295 14.7536 8.8962 15.1285 8.8962C15.5033 8.8962 15.7782 9.0295 15.9531 9.29609C16.1364 9.5538 16.228 9.89593 16.228 10.3225V10.4425H13.929V10.3358C13.929 9.90038 14.0331 9.5538 14.2414 9.29609Z" fill="#00B2FF"/>
<path d="M27.3022 13.1751C27.0856 13.3172 26.8232 13.3883 26.515 13.3883C26.2402 13.3883 26.0278 13.3306 25.8778 13.215C25.7279 13.0906 25.6529 12.8996 25.6529 12.6419V12.4419C25.6529 11.9176 26.0153 11.6555 26.7399 11.6555H27.6395V12.4819C27.6395 12.8018 27.5271 13.0329 27.3022 13.1751Z" fill="#00B2FF"/>
<path fill-rule="evenodd" clip-rule="evenodd" d="M2 0.617188C0.895431 0.617188 0 1.51262 0 2.61719V16.6172C0 17.7218 0.89543 18.6172 2 18.6172H33C34.1046 18.6172 35 17.7218 35 16.6172V2.61719C35 1.51262 34.1046 0.617188 33 0.617188H2ZM6.67729 4.7373H4.82812V14.6013H6.67729V13.4283H6.73977C6.78974 13.6149 6.86887 13.7927 6.97716 13.9615C7.08544 14.1215 7.21455 14.2637 7.36448 14.3881C7.52275 14.5036 7.69767 14.5925 7.88925 14.6547C8.08083 14.7258 8.2849 14.7613 8.50147 14.7613C9.33443 14.7613 9.96332 14.4503 10.3881 13.8282C10.8129 13.1973 11.0253 12.2864 11.0253 11.0956C11.0253 9.90482 10.8129 8.99839 10.3881 8.37634C9.96332 7.75428 9.33443 7.44325 8.50147 7.44325C8.07666 7.44325 7.69767 7.56766 7.36448 7.81649C7.03963 8.06531 6.83139 8.38522 6.73977 8.77623H6.67729V4.7373ZM13.8291 14.508C14.2205 14.6769 14.6662 14.7613 15.166 14.7613C15.7657 14.7613 16.2988 14.6591 16.7652 14.4547C17.24 14.2503 17.6232 13.966 17.9147 13.6016L16.9901 12.3753C16.7819 12.6063 16.557 12.8063 16.3154 12.9751C16.0739 13.1351 15.7615 13.215 15.3784 13.215C14.8786 13.215 14.5121 13.0818 14.2789 12.8152C14.0456 12.5397 13.929 12.1709 13.929 11.7088V11.6021H18.1396V11.0156C18.1396 10.5446 18.0813 10.0959 17.9647 9.66933C17.8564 9.23389 17.6773 8.85177 17.4274 8.52296C17.1859 8.19416 16.8694 7.93201 16.4779 7.73651C16.0947 7.541 15.6324 7.44325 15.091 7.44325C14.5995 7.44325 14.1622 7.53212 13.7791 7.70985C13.3959 7.87869 13.0711 8.12307 12.8045 8.44299C12.5463 8.7629 12.3506 9.14946 12.2173 9.60268C12.084 10.047 12.0174 10.5446 12.0174 11.0956C12.0174 11.6555 12.084 12.162 12.2173 12.6152C12.3589 13.0684 12.563 13.455 12.8295 13.7749C13.1044 14.0859 13.4376 14.3303 13.8291 14.508ZM21.7445 14.6013C21.1032 14.6013 20.6159 14.4281 20.2827 14.0815C19.9578 13.7349 19.7954 13.2284 19.7954 12.5619V9.13614H18.8708V7.60321H19.3331C19.583 7.60321 19.7538 7.541 19.8454 7.41659C19.937 7.28329 19.9828 7.09668 19.9828 6.85674V5.71038H21.6446V7.60321H22.944V9.13614H21.6446V13.0684H22.844V14.6013H21.7445ZM28.2393 14.2681C28.4642 14.4903 28.7432 14.6013 29.0764 14.6013H30.1009V13.0684H29.4887V10.0026C29.4887 9.16724 29.2555 8.53185 28.789 8.09641C28.3226 7.66097 27.6229 7.44325 26.69 7.44325C25.9986 7.44325 25.4489 7.56322 25.0407 7.80315C24.6409 8.0342 24.3077 8.35856 24.0412 8.77623L25.1407 9.81595C25.2823 9.60268 25.4614 9.41162 25.6779 9.24277C25.8945 9.07393 26.186 8.98951 26.5525 8.98951C26.944 8.98951 27.2231 9.0917 27.3897 9.29609C27.5562 9.4916 27.6395 9.75819 27.6395 10.0959V10.5358H26.6025C25.7362 10.5358 25.049 10.7179 24.5409 11.0823C24.0412 11.4377 23.7913 11.9843 23.7913 12.7218C23.7913 13.335 23.9662 13.8282 24.316 14.2015C24.6659 14.5747 25.1698 14.7613 25.8279 14.7613C26.3276 14.7613 26.7483 14.6458 27.0898 14.4147C27.4313 14.1748 27.652 13.8282 27.752 13.375H27.827C27.8853 13.7482 28.0227 14.0459 28.2393 14.2681Z" fill="#00B2FF"/>
</svg>
