<svg xmlns="http://www.w3.org/2000/svg" width="16" height="16" viewBox="0 0 16 16" fill="none">
  <g opacity="0.5">
    <path
      d="M10.6545 1.71367C10.6545 2.10783 10.3304 2.42735 9.93058 2.42735H6.06945C5.66961 2.42735 5.34549 2.10782 5.34549 1.71367C5.34549 1.31951 5.66963 1 6.06945 1H9.93058C10.3304 1 10.6545 1.31953 10.6545 1.71367ZM12.8519 5.61553L13.3254 5.1488C13.6081 4.87012 13.6081 4.41822 13.3254 4.13954C13.0426 3.86082 12.5842 3.86082 12.3015 4.13954L11.8678 4.56707C10.8231 3.69703 9.47466 3.17047 8 3.17047C4.68629 3.17047 2 5.81861 2 9.08523C2 12.3518 4.68629 15 8 15C11.3137 15 14 12.3519 14 9.08524C14 7.78728 13.571 6.59086 12.8519 5.61553ZM11.2363 12.1995C10.9536 12.4783 10.4952 12.4783 10.2125 12.1995L7.4822 9.50809C7.33458 9.36252 7.26831 9.17021 7.27489 8.97951C7.27462 8.9714 7.27018 8.96461 7.27018 8.95644V6.21355C7.27018 5.81941 7.5943 5.49988 7.99414 5.49988C8.39397 5.49988 8.7181 5.81941 8.7181 6.21355V8.70783L11.2363 11.1902C11.519 11.469 11.519 11.9208 11.2363 12.1995Z"
      fill="white" />
  </g>
</svg>
