<svg xmlns="http://www.w3.org/2000/svg" width="75" height="20" viewBox="0 0 75 20" fill="none">
  <path opacity="0.6" fill-rule="evenodd" clip-rule="evenodd"
    d="M17.6532 0V10L0 20V10L17.6532 0ZM35.3065 0V10L17.6532 20V10L35.3065 0Z" fill="#0085FF" />
  <path
    d="M49.4499 4.79718H47.3256V9.27297H43.0042V4.79718H40.8799V15.5404H43.0042V11.1834H47.3256V15.5404H49.4499V4.79718ZM58.5874 12.187C58.5874 12.187 58.6165 11.9161 58.6165 11.5882C58.6165 9.3784 57.0887 7.6961 54.8335 7.6961C52.5782 7.6961 51.0068 9.3784 51.0068 11.5882C51.0068 13.8835 52.5927 15.5088 54.848 15.5088C56.6086 15.5088 58.0054 14.4681 58.4564 12.9568H56.3758C56.1284 13.4986 55.5319 13.7695 54.9062 13.7695C53.8732 13.7695 53.2038 13.2135 53.0583 12.187H58.5874ZM54.8189 9.32137C55.7792 9.32137 56.4049 9.89164 56.5504 10.7328H53.0874C53.262 9.87738 53.8732 9.32137 54.8189 9.32137ZM62.0794 15.5404V4.79718H60.0133V15.5404H62.0794ZM65.004 7.23556C65.7315 7.23556 66.2553 6.73657 66.2553 6.02374C66.2553 5.3109 65.7315 4.79765 65.004 4.79765C64.2765 4.79765 63.7527 5.3109 63.7527 6.02374C63.7527 6.73657 64.2765 7.23556 65.004 7.23556ZM63.9709 15.5404H66.0371V8.06988H63.9709V15.5404ZM74.9126 8.06988H72.4246L70.9114 10.2084L69.3981 8.06988H66.9101L69.7473 11.7481L66.8228 15.5404H69.3108L70.9114 13.2736L72.5119 15.5404H74.9999L72.0754 11.7481L74.9126 8.06988Z"
    fill="#0085FF" />
  <path fill-rule="evenodd" clip-rule="evenodd"
    d="M0 0L17.6532 10V20L0 10V0ZM17.6532 0L35.3065 10V20L17.6532 10V0Z" fill="#0085FF" />
</svg>