<svg width="91" height="26" viewBox="0 0 91 26" fill="none" xmlns="http://www.w3.org/2000/svg">
<path opacity="0.6" fill-rule="evenodd" clip-rule="evenodd" d="M21.4192 0.617188V13.0002L0 25.3832V13.0002L21.4192 0.617188ZM42.8385 0.617188V13.0002L21.4192 25.3832V13.0002L42.8385 0.617188Z" fill="#0085FF"/>
<path d="M59.9999 6.55762H57.4223V12.1H52.1791V6.55762H49.6016V19.861H52.1791V14.4656H57.4223V19.861H59.9999V6.55762ZM71.0867 15.7084C71.0867 15.7084 71.122 15.373 71.122 14.9669C71.122 12.2305 69.2683 10.1473 66.5319 10.1473C63.7955 10.1473 61.8888 12.2305 61.8888 14.9669C61.8888 17.8092 63.8131 19.8218 66.5495 19.8218C68.6857 19.8218 70.3805 18.5331 70.9278 16.6617H68.4032C68.1031 17.3326 67.3793 17.668 66.6202 17.668C65.3667 17.668 64.5546 16.9795 64.3781 15.7084H71.0867ZM66.5142 12.1599C67.6794 12.1599 68.4385 12.8661 68.6151 13.9077H64.4134C64.6252 12.8484 65.3667 12.1599 66.5142 12.1599ZM75.3236 19.861V6.55762H72.8168V19.861H75.3236ZM78.8721 9.57706C79.7548 9.57706 80.3904 8.95917 80.3904 8.07646C80.3904 7.19375 79.7548 6.5582 78.8721 6.5582C77.9894 6.5582 77.3539 7.19375 77.3539 8.07646C77.3539 8.95917 77.9894 9.57706 78.8721 9.57706ZM77.6187 19.861H80.1256V10.6102H77.6187V19.861ZM90.8946 10.6102H87.8757L86.0397 13.2583L84.2037 10.6102H81.1848L84.6274 15.165L81.0789 19.861H84.0978L86.0397 17.054L87.9817 19.861H91.0005L87.452 15.165L90.8946 10.6102Z" fill="#0085FF"/>
<path fill-rule="evenodd" clip-rule="evenodd" d="M0 0.617188L21.4192 13.0002V25.3832L0 13.0002V0.617188ZM21.4192 0.617188L42.8385 13.0002V25.3832L21.4192 13.0002V0.617188Z" fill="#0085FF"/>
</svg>
