<svg t="1693281613004" class="icon" viewBox="0 0 1024 1024" version="1.1"
  xmlns="http://www.w3.org/2000/svg" p-id="1458" width="48" height="48">
  <path d="M192 192m-64 0a64 64 0 1 0 128 0 64 64 0 1 0-128 0Z" p-id="1459" fill="#FF0083"></path>
  <path d="M192 512m-64 0a64 64 0 1 0 128 0 64 64 0 1 0-128 0Z" p-id="1460" fill="#FF0083"></path>
  <path d="M192 832m-64 0a64 64 0 1 0 128 0 64 64 0 1 0-128 0Z" p-id="1461" fill="#FF0083"></path>
  <path
    d="M864 160H352c-17.7 0-32 14.3-32 32s14.3 32 32 32h512c17.7 0 32-14.3 32-32s-14.3-32-32-32zM864 480H352c-17.7 0-32 14.3-32 32s14.3 32 32 32h512c17.7 0 32-14.3 32-32s-14.3-32-32-32zM864 800H352c-17.7 0-32 14.3-32 32s14.3 32 32 32h512c17.7 0 32-14.3 32-32s-14.3-32-32-32z"
    p-id="1462" fill="#FF0083"></path>
</svg>
