<svg width="52" height="65" viewBox="0 0 52 65" fill="none" xmlns="http://www.w3.org/2000/svg">
  <g opacity="0.8">
    <path
      d="M22.798 39.326L22.764 32.832H24.974C26.2433 32.832 27.2633 32.492 28.034 31.812C28.8047 31.1093 29.19 30.1687 29.19 28.99C29.19 27.8113 28.8047 26.8707 28.034 26.168C27.2633 25.4653 26.232 25.114 24.94 25.114H20.282V21.68H24.838C26.4473 21.68 27.8527 21.986 29.054 22.598C30.2553 23.1873 31.1847 24.026 31.842 25.114C32.522 26.202 32.862 27.494 32.862 28.99C32.862 30.3273 32.5787 31.5173 32.012 32.56C31.4453 33.6027 30.6633 34.43 29.666 35.042C28.6913 35.6313 27.5467 35.9487 26.232 35.994V39.326H22.798ZM23.988 46.67C23.3307 46.67 22.798 46.4773 22.39 46.092C21.982 45.684 21.778 45.1627 21.778 44.528C21.778 43.8933 21.982 43.3833 22.39 42.998C22.798 42.59 23.3307 42.386 23.988 42.386H25.008C25.688 42.386 26.2207 42.59 26.606 42.998C26.9913 43.3833 27.184 43.882 27.184 44.494C27.184 45.1287 26.98 45.65 26.572 46.058C26.164 46.466 25.6313 46.67 24.974 46.67H23.988Z"
      fill="#4BB1F8" />
    <path fill-rule="evenodd" clip-rule="evenodd" d="M40.375 1.75419L50.337 12.2627H40.375V1.75419Z"
      fill="#4BB1F8" />
    <path
      d="M39.66 1L40.0229 0.656007L39.875 0.5H39.66V1ZM51 12.962H51.5V12.7627L51.3629 12.618L51 12.962ZM51 64V64.5H51.5V64H51ZM1 64H0.5V64.5H1V64ZM1 1V0.5H0.5V1H1ZM22.798 39.326L22.298 39.3286L22.3006 39.826H22.798V39.326ZM22.764 32.832V32.332H22.2614L22.264 32.8346L22.764 32.832ZM28.034 31.812L28.3649 32.187L28.3709 32.1815L28.034 31.812ZM28.034 26.168L28.3709 25.7985H28.3709L28.034 26.168ZM20.282 25.114H19.782V25.614H20.282V25.114ZM20.282 21.68V21.18H19.782V21.68H20.282ZM29.054 22.598L28.827 23.0436L28.8338 23.0469L29.054 22.598ZM31.842 25.114L31.414 25.3726L31.418 25.379L31.842 25.114ZM29.666 35.042L29.9247 35.4699L29.9275 35.4682L29.666 35.042ZM26.232 35.994L26.2148 35.4943L25.732 35.5109V35.994H26.232ZM26.232 39.326V39.826H26.732V39.326H26.232ZM22.39 46.092L22.0364 46.4456L22.0415 46.4506L22.0467 46.4555L22.39 46.092ZM22.39 42.998L22.7333 43.3615L22.7385 43.3566L22.7436 43.3516L22.39 42.998ZM26.606 42.998L26.2425 43.3413L26.2474 43.3465L26.2524 43.3516L26.606 42.998ZM26.572 46.058L26.9256 46.4116L26.572 46.058ZM40.375 1.75419L40.7379 1.4102L39.875 0.5V1.75419H40.375ZM50.337 12.2627V12.7627H51.5L50.6999 11.9187L50.337 12.2627ZM40.375 12.2627H39.875V12.7627H40.375V12.2627ZM39.2972 1.34399L50.6371 13.306L51.3629 12.618L40.0229 0.656007L39.2972 1.34399ZM50.5 12.962V64H51.5V12.962H50.5ZM51 63.5H1V64.5H51V63.5ZM1.5 64V1H0.5V64H1.5ZM1 1.5H39.66V0.5H1V1.5ZM23.298 39.3234L23.264 32.8294L22.264 32.8346L22.298 39.3286L23.298 39.3234ZM22.764 33.332H24.974V32.332H22.764V33.332ZM24.974 33.332C26.3354 33.332 27.4827 32.9653 28.3648 32.1869L27.7032 31.4371C27.044 32.0187 26.1513 32.332 24.974 32.332V33.332ZM28.3709 32.1815C29.2595 31.3712 29.69 30.289 29.69 28.99H28.69C28.69 30.0483 28.3498 30.8474 27.6971 31.4425L28.3709 32.1815ZM29.69 28.99C29.69 27.691 29.2595 26.6088 28.3709 25.7985L27.6971 26.5375C28.3498 27.1326 28.69 27.9317 28.69 28.99H29.69ZM28.3709 25.7985C27.4875 24.993 26.3255 24.614 24.94 24.614V25.614C26.1385 25.614 27.0392 25.9376 27.6971 26.5375L28.3709 25.7985ZM24.94 24.614H20.282V25.614H24.94V24.614ZM20.782 25.114V21.68H19.782V25.114H20.782ZM20.282 22.18H24.838V21.18H20.282V22.18ZM24.838 22.18C26.3836 22.18 27.7084 22.4736 28.827 23.0435L29.281 22.1525C27.997 21.4984 26.5111 21.18 24.838 21.18V22.18ZM28.8338 23.0469C29.9538 23.5963 30.809 24.371 31.414 25.3726L32.27 24.8554C31.5604 23.681 30.5568 22.7783 29.2742 22.1491L28.8338 23.0469ZM31.418 25.379C32.0406 26.3751 32.362 27.5719 32.362 28.99H33.362C33.362 27.4161 33.0034 26.0289 32.266 24.849L31.418 25.379ZM32.362 28.99C32.362 30.2547 32.0947 31.3607 31.5727 32.3212L32.4513 32.7988C33.0626 31.6739 33.362 30.4 33.362 28.99H32.362ZM31.5727 32.3212C31.0472 33.2881 30.3261 34.0503 29.4045 34.6158L29.9275 35.4682C31.0006 34.8097 31.8434 33.9172 32.4513 32.7988L31.5727 32.3212ZM29.4073 34.6141C28.5163 35.1529 27.4575 35.4514 26.2148 35.4943L26.2492 36.4937C27.6359 36.4459 28.8664 36.1098 29.9247 35.4699L29.4073 34.6141ZM25.732 35.994V39.326H26.732V35.994H25.732ZM26.232 38.826H22.798V39.826H26.232V38.826ZM23.988 46.17C23.435 46.17 23.0328 46.0113 22.7333 45.7285L22.0467 46.4555C22.5632 46.9433 23.2264 47.17 23.988 47.17V46.17ZM22.7436 45.7384C22.4391 45.434 22.278 45.0446 22.278 44.528H21.278C21.278 45.2807 21.5249 45.934 22.0364 46.4456L22.7436 45.7384ZM22.278 44.528C22.278 44.0111 22.4389 43.6396 22.7333 43.3615L22.0467 42.6345C21.5251 43.1271 21.278 43.7756 21.278 44.528H22.278ZM22.7436 43.3516C23.0445 43.0506 23.4432 42.886 23.988 42.886V41.886C23.2181 41.886 22.5515 42.1294 22.0364 42.6444L22.7436 43.3516ZM23.988 42.886H25.008V41.886H23.988V42.886ZM25.008 42.886C25.5818 42.886 25.9712 43.054 26.2425 43.3413L26.9695 42.6547C26.4702 42.126 25.7942 41.886 25.008 41.886V42.886ZM26.2524 43.3516C26.5321 43.6312 26.684 43.9968 26.684 44.494H27.684C27.684 43.7672 27.4505 43.1354 26.9596 42.6444L26.2524 43.3516ZM26.684 44.494C26.684 45.0106 26.5229 45.4 26.2184 45.7044L26.9256 46.4116C27.4371 45.9 27.684 45.2467 27.684 44.494H26.684ZM26.2184 45.7044C25.9175 46.0054 25.5188 46.17 24.974 46.17V47.17C25.7439 47.17 26.4105 46.9266 26.9256 46.4116L26.2184 45.7044ZM24.974 46.17H23.988V47.17H24.974V46.17ZM40.0121 2.09818L49.9742 12.6067L50.6999 11.9187L40.7379 1.4102L40.0121 2.09818ZM50.337 11.7627H40.375V12.7627H50.337V11.7627ZM40.875 12.2627V1.75419H39.875V12.2627H40.875Z"
      fill="#4BB1F8" />
  </g>
</svg>