<svg width="35" height="36" viewBox="0 0 35 36" fill="none" xmlns="http://www.w3.org/2000/svg">
<path fill-rule="evenodd" clip-rule="evenodd" d="M30.6186 18C30.6186 10.5442 24.8041 4.5 17.6316 4.5C10.459 4.5 4.64453 10.5442 4.64453 18C4.64453 25.4558 10.459 31.5 17.6316 31.5C24.8041 31.5 30.6186 25.4558 30.6186 18ZM10.4362 21.3514C10.9434 20.8828 11.7657 20.8828 12.2728 21.3514L13.9519 22.9029L13.9519 10.2C13.9519 9.53726 14.5334 9 15.2506 9C15.9679 9 16.5493 9.53726 16.5493 10.2V25.8C16.5493 26.2853 16.2329 26.7229 15.7476 26.9086C15.2623 27.0944 14.7037 26.9917 14.3323 26.6485L10.4362 23.0485C9.92902 22.5799 9.92902 21.8201 10.4362 21.3514ZM24.827 14.6486C24.3198 15.1172 23.4975 15.1172 22.9903 14.6486L21.3113 13.0971V25.8C21.3113 26.4627 20.7298 27 20.0126 27C19.2953 27 18.7138 26.4627 18.7138 25.8V10.2C18.7138 9.71468 19.0303 9.27712 19.5156 9.09138C20.0009 8.90564 20.5595 9.00831 20.9309 9.35151L24.827 12.9515C25.3342 13.4201 25.3342 14.1799 24.827 14.6486Z" fill="white"/>
</svg>
