<svg t="1693896784319" class="icon" viewBox="0 0 1024 1024" version="1.1"
  xmlns="http://www.w3.org/2000/svg" p-id="3173" width="64" height="64">
  <path
    d="M512 960A448 448 0 1 0 512 64a448 448 0 0 0 0 896zM512 1024A512 512 0 1 1 512 0a512 512 0 0 1 0 1024zM341.357714 403.017143c1.024-38.912 5.632-68.461714 13.750857-88.722286 8.045714-20.333714 21.065143-38.4 38.912-54.345143a174.08 174.08 0 0 1 59.611429-35.254857 210.651429 210.651429 0 0 1 69.266286-11.337143c49.225143 0 90.112 14.409143 122.88 43.373715 32.694857 28.891429 49.005714 67.364571 49.005714 115.492571 0 21.577143-4.169143 41.179429-12.580571 58.806857-8.338286 17.554286-26.185143 39.497143-53.467429 65.609143-27.355429 26.258286-45.421714 44.909714-54.345143 55.954286a114.980571 114.980571 0 0 0-20.260571 39.716571c-4.608 15.36-6.582857 36.059429-6.070857 62.025143h-71.314286c0-30.281143 2.413714-54.418286 7.314286-72.557714 4.827429-18.139429 12.141714-33.938286 21.869714-47.396572 9.728-13.531429 27.282286-33.426286 52.662857-59.611428 25.380571-26.185143 41.691429-45.275429 49.005714-57.124572 7.314286-11.922286 10.971429-29.622857 10.971429-53.101714a89.234286 89.234286 0 0 0-25.088-62.464c-16.822857-18.066286-41.106286-27.136-72.996572-27.136-71.899429 0-107.812571 42.715429-107.812571 128.073143 0 0-9.289143 28.013714-35.108571 28.013714s-36.205714-28.013714-36.205715-28.013714z m212.406857 399.652571H475.062857v-82.651428H553.691429v82.651428z"
    fill="#3587F5" p-id="3174"></path>
</svg>
