<svg width="18" height="18" viewBox="0 0 18 18" fill="none" xmlns="http://www.w3.org/2000/svg">
  <rect opacity="0.01" width="18" height="18" fill="white" />
  <path fill-rule="evenodd" clip-rule="evenodd"
    d="M5.89696 4.875H14.1552C14.7253 4.875 15.1875 5.3367 15.1875 5.90625V14.1563C15.1875 14.7258 14.7253 15.1875 14.1552 15.1875H5.89696H5.89696C5.32685 15.1875 4.86468 14.7258 4.86468 14.1563V5.90625C4.86468 5.3367 5.32685 4.875 5.89696 4.875L5.89696 4.875ZM6.38626 13.7262H13.6556V6.39094H6.38626V13.7262ZM3.84478 3.84374V12.0937C3.27467 12.0937 2.8125 11.632 2.8125 11.0625V3.84375V3.84375C2.8125 3.27421 3.27467 2.8125 3.84478 2.8125H11.0707C11.6409 2.8125 12.103 3.27421 12.103 3.84375H3.84477L3.84478 3.84374Z"
    fill="white" />
</svg>
