<svg width="107" height="20" viewBox="0 0 107 20" fill="none" xmlns="http://www.w3.org/2000/svg">
<path opacity="0.6" fill-rule="evenodd" clip-rule="evenodd" d="M16.4763 0.474609V9.99999L0 19.5254V9.99999L16.4763 0.474609ZM32.9527 0.474609V9.99999L16.4763 19.5254V9.99999L32.9527 0.474609Z" fill="#0085FF"/>
<path fill-rule="evenodd" clip-rule="evenodd" d="M0 0.474609L16.4763 9.99999V19.5254L0 9.99999V0.474609ZM16.4763 0.474609L32.9527 9.99999V19.5254L16.4763 9.99999V0.474609Z" fill="#0085FF"/>
<path d="M41.7835 4.61538H43.7527V9.30769H43.8296C43.9937 8.87692 44.2501 8.51795 44.5989 8.23077C44.9578 7.93333 45.4501 7.78462 46.0758 7.78462C46.9066 7.78462 47.5425 8.05641 47.9835 8.6C48.4245 9.14359 48.645 9.91795 48.645 10.9231V16H46.6758V11.1231C46.6758 10.5487 46.5732 10.1179 46.3681 9.83077C46.163 9.54359 45.8245 9.4 45.3527 9.4C45.1476 9.4 44.9476 9.43077 44.7527 9.49231C44.5681 9.54359 44.3989 9.62564 44.245 9.73846C44.1014 9.84103 43.9835 9.97436 43.8912 10.1385C43.7989 10.2923 43.7527 10.4769 43.7527 10.6923V16H41.7835V4.61538ZM54.0741 16.1846C53.4792 16.1846 52.9459 16.0872 52.4741 15.8923C52.0126 15.6872 51.6177 15.4051 51.2895 15.0462C50.9715 14.6769 50.7254 14.2359 50.551 13.7231C50.3767 13.2 50.2895 12.6154 50.2895 11.9692C50.2895 11.3333 50.3715 10.759 50.5356 10.2462C50.71 9.73333 50.9562 9.29744 51.2741 8.93846C51.5921 8.56923 51.9818 8.28718 52.4433 8.09231C52.9049 7.88718 53.428 7.78462 54.0126 7.78462C54.6382 7.78462 55.1818 7.89231 55.6433 8.10769C56.1049 8.32308 56.4844 8.61538 56.7818 8.98462C57.0792 9.35385 57.2997 9.78462 57.4433 10.2769C57.5972 10.759 57.6741 11.2769 57.6741 11.8308V12.4769H52.3356V12.6769C52.3356 13.2615 52.4997 13.7333 52.828 14.0923C53.1562 14.441 53.6433 14.6154 54.2895 14.6154C54.7818 14.6154 55.1818 14.5128 55.4895 14.3077C55.8074 14.1026 56.0895 13.841 56.3356 13.5231L57.3972 14.7077C57.069 15.1692 56.6177 15.5333 56.0433 15.8C55.4792 16.0564 54.8228 16.1846 54.0741 16.1846ZM54.0433 9.26154C53.5203 9.26154 53.1049 9.4359 52.7972 9.78462C52.4895 10.1333 52.3356 10.5846 52.3356 11.1385V11.2615H55.628V11.1231C55.628 10.5692 55.4895 10.1231 55.2126 9.78462C54.9459 9.4359 54.5562 9.26154 54.0433 9.26154ZM61.3759 16C60.699 16 60.2015 15.8308 59.8836 15.4923C59.5657 15.1538 59.4067 14.6769 59.4067 14.0615V4.61538H61.3759V14.4308H62.4374V16H61.3759ZM64.9135 6.8C64.5033 6.8 64.2058 6.70769 64.0212 6.52308C63.8469 6.33846 63.7597 6.10256 63.7597 5.81538V5.50769C63.7597 5.22051 63.8469 4.98462 64.0212 4.8C64.2058 4.61538 64.5033 4.52308 64.9135 4.52308C65.3135 4.52308 65.6058 4.61538 65.7905 4.8C65.9751 4.98462 66.0674 5.22051 66.0674 5.50769V5.81538C66.0674 6.10256 65.9751 6.33846 65.7905 6.52308C65.6058 6.70769 65.3135 6.8 64.9135 6.8ZM63.9289 7.96923H65.8981V16H63.9289V7.96923ZM67.3346 16L70.073 11.9231L67.3961 7.96923H69.6423L71.3038 10.6308H71.3653L73.0115 7.96923H75.1038L72.3807 11.9538L75.1192 16H72.873L71.1807 13.2308H71.1192L69.4269 16H67.3346ZM77.703 16.1692C77.2824 16.1692 76.9696 16.0667 76.7645 15.8615C76.5696 15.6462 76.4722 15.3744 76.4722 15.0462V14.7692C76.4722 14.441 76.5696 14.1692 76.7645 13.9538C76.9696 13.7385 77.2824 13.6308 77.703 13.6308C78.1337 13.6308 78.4465 13.7385 78.6414 13.9538C78.8363 14.1692 78.9337 14.441 78.9337 14.7692V15.0462C78.9337 15.3744 78.8363 15.6462 78.6414 15.8615C78.4465 16.0667 78.1337 16.1692 77.703 16.1692ZM81.1465 4.61538H83.1157V9.29231H83.1772C83.3208 8.83077 83.5926 8.46667 83.9926 8.2C84.3926 7.92308 84.8593 7.78462 85.3926 7.78462C86.4183 7.78462 87.1977 8.14872 87.7311 8.87692C88.2747 9.59487 88.5465 10.6256 88.5465 11.9692C88.5465 13.3231 88.2747 14.3641 87.7311 15.0923C87.1977 15.8205 86.4183 16.1846 85.3926 16.1846C84.8593 16.1846 84.3926 16.0462 83.9926 15.7692C83.6029 15.4923 83.3311 15.1231 83.1772 14.6615H83.1157V16H81.1465V4.61538ZM84.7618 14.5538C85.2747 14.5538 85.6901 14.3846 86.008 14.0462C86.3259 13.7077 86.4849 13.2513 86.4849 12.6769V11.2923C86.4849 10.7179 86.3259 10.2615 86.008 9.92308C85.6901 9.57436 85.2747 9.4 84.7618 9.4C84.2901 9.4 83.8952 9.51795 83.5772 9.75385C83.2695 9.98974 83.1157 10.3026 83.1157 10.6923V13.2462C83.1157 13.6667 83.2695 13.9897 83.5772 14.2154C83.8952 14.441 84.2901 14.5538 84.7618 14.5538ZM93.5558 16.1846C92.9815 16.1846 92.4635 16.0872 92.002 15.8923C91.5507 15.6974 91.161 15.4154 90.8328 15.0462C90.5148 14.6769 90.2687 14.2359 90.0943 13.7231C89.9199 13.2 89.8328 12.6154 89.8328 11.9692C89.8328 11.3231 89.9199 10.7436 90.0943 10.2308C90.2687 9.71795 90.5148 9.28205 90.8328 8.92308C91.161 8.55385 91.5507 8.27179 92.002 8.07692C92.4635 7.88205 92.9815 7.78462 93.5558 7.78462C94.1302 7.78462 94.6481 7.88205 95.1097 8.07692C95.5712 8.27179 95.961 8.55385 96.2789 8.92308C96.6071 9.28205 96.8584 9.71795 97.0328 10.2308C97.2071 10.7436 97.2943 11.3231 97.2943 11.9692C97.2943 12.6154 97.2071 13.2 97.0328 13.7231C96.8584 14.2359 96.6071 14.6769 96.2789 15.0462C95.961 15.4154 95.5712 15.6974 95.1097 15.8923C94.6481 16.0872 94.1302 16.1846 93.5558 16.1846ZM93.5558 14.6C94.0789 14.6 94.4892 14.441 94.7866 14.1231C95.084 13.8051 95.2328 13.3385 95.2328 12.7231V11.2308C95.2328 10.6256 95.084 10.1641 94.7866 9.84615C94.4892 9.52821 94.0789 9.36923 93.5558 9.36923C93.043 9.36923 92.6379 9.52821 92.3404 9.84615C92.043 10.1641 91.8943 10.6256 91.8943 11.2308V12.7231C91.8943 13.3385 92.043 13.8051 92.3404 14.1231C92.6379 14.441 93.043 14.6 93.5558 14.6ZM97.9686 16L100.707 11.9231L98.0301 7.96923H100.276L101.938 10.6308H101.999L103.646 7.96923H105.738L103.015 11.9538L105.753 16H103.507L101.815 13.2308H101.753L100.061 16H97.9686Z" fill="#0085FF"/>
</svg>
