<svg t="1696786230607" class="icon" viewBox="0 0 1024 1024" version="1.1"
  xmlns="http://www.w3.org/2000/svg" p-id="6359" width="32" height="32">
  <path
    d="M850.17 456.78v-73.26-118.37c0-9.68 0.01-19.36 0-29.04-0.04-28.56-12.39-57.22-35.04-75.11-8.76-6.92-17.31-11.88-27.69-16.03-8.57-3.43-17.55-4.95-26.72-5.82-2.93-0.28-5.85-0.32-8.78-0.32H307.57c-14.04 0-28.32-0.77-42.34 0.16-18 1.21-35.97 6.7-50.56 17.54-8.91 6.62-15.88 13.55-22.56 22.39-5.45 7.21-9.17 15.09-12.47 23.5-4.63 11.79-5.79 24.56-5.79 37.13v502.78c0 15.18-0.02 30.37 0 45.55 0.03 25.5 9.7 50.14 27.55 68.45 18.44 18.91 44.06 28.84 70.3 28.84h307.88c13.08 0 25.6-11.5 25-25-0.61-13.55-10.98-25-25-25H304.61c-11.47 0-22.93 0.06-34.4 0a79.72 79.72 0 0 1-9.76-0.65c2.22 0.3 4.43 0.6 6.65 0.89a74.495 74.495 0 0 1-18.07-4.95l5.97 2.52a74.552 74.552 0 0 1-15.81-9.25c1.69 1.3 3.37 2.61 5.06 3.91-4.81-3.77-9.1-8.06-12.87-12.87 1.3 1.69 2.61 3.37 3.91 5.06a74.552 74.552 0 0 1-9.25-15.81l2.52 5.97a74.495 74.495 0 0 1-4.95-18.07c0.3 2.22 0.6 4.43 0.89 6.65-0.96-7.44-0.65-15.06-0.65-22.56v-39.55-59.84-73.63-80.92-81.71-76.01-63.81-45.12c0-6.64-0.02-13.28 0-19.93 0.01-3.38 0.22-6.73 0.65-10.09-0.3 2.22-0.6 4.43-0.89 6.65 0.89-6.23 2.54-12.26 4.95-18.07l-2.52 5.97a74.552 74.552 0 0 1 9.25-15.81c-1.3 1.69-2.61 3.37-3.91 5.06 3.77-4.81 8.06-9.1 12.87-12.87-1.69 1.3-3.37 2.61-5.06 3.91a74.552 74.552 0 0 1 15.81-9.25l-5.97 2.52a74.495 74.495 0 0 1 18.07-4.95c-2.22 0.3-4.43 0.6-6.65 0.89 6.87-0.88 13.84-0.65 20.75-0.65H736.48c5.71 0 11.43-0.02 17.14 0 3.35 0.01 6.67 0.22 9.99 0.65-2.22-0.3-4.43-0.6-6.65-0.89 6.23 0.89 12.26 2.54 18.07 4.95l-5.97-2.52a74.552 74.552 0 0 1 15.81 9.25c-1.69-1.3-3.37-2.61-5.06-3.91 4.81 3.77 9.1 8.06 12.87 12.87-1.3-1.69-2.61-3.37-3.91-5.06a74.552 74.552 0 0 1 9.25 15.81l-2.52-5.97a74.495 74.495 0 0 1 4.95 18.07c-0.3-2.22-0.6-4.43-0.89-6.65 1.21 9.4 0.65 19.16 0.65 28.62V456.76c0 13.08 11.5 25.6 25 25 13.51-0.59 24.96-10.97 24.96-24.98z"
    fill="#0085FF" p-id="6360"></path>
  <path
    d="M325.17 345.87l7.15 0.06 19.28 0.15c9.57 0.07 19.14 0.15 28.7 0.22l34.78 0.27 38.35 0.3 38.45 0.3c12.03 0.09 24.07 0.19 36.1 0.28l30.3 0.24c7.31 0.06 14.63 0.11 21.94 0.17 3.44 0.03 6.88 0.07 10.33 0.08h0.45c4.13 0.16 7.98-0.71 11.56-2.58 3.72-1.21 6.94-3.28 9.65-6.2 2.93-2.72 4.99-5.94 6.2-9.65 1.88-3.58 2.74-7.43 2.58-11.56-0.36-2.66-0.71-5.32-1.07-7.98-1.43-5.08-4-9.49-7.72-13.24l-6.07-4.69c-4.68-2.71-9.73-4.08-15.14-4.1l-7.15-0.06-19.28-0.15c-9.57-0.07-19.14-0.15-28.7-0.22l-34.78-0.27-38.35-0.3-38.45-0.3c-12.03-0.09-24.07-0.19-36.1-0.28l-30.3-0.24c-7.31-0.06-14.63-0.11-21.94-0.17-3.44-0.03-6.88-0.07-10.33-0.08h-0.45c-4.13-0.16-7.98 0.71-11.56 2.58-3.72 1.21-6.94 3.28-9.65 6.2-2.93 2.72-4.99 5.94-6.2 9.65-1.88 3.58-2.74 7.43-2.58 11.56 0.36 2.66 0.71 5.32 1.07 7.98 1.43 5.08 4 9.49 7.72 13.24l6.07 4.69c4.68 2.71 9.72 4.08 15.14 4.1zM325.17 532.51l12.72 0.21c10.18 0.16 20.37 0.33 30.55 0.49l37.1 0.6c10.65 0.17 21.31 0.34 31.96 0.52 5.18 0.08 10.36 0.2 15.54 0.25h0.22c4.13 0.16 7.98-0.71 11.56-2.58 3.72-1.21 6.94-3.28 9.65-6.2 2.93-2.72 4.99-5.94 6.2-9.65 1.88-3.58 2.74-7.43 2.58-11.56-0.36-2.66-0.71-5.32-1.07-7.98-1.43-5.08-4-9.49-7.72-13.24l-6.07-4.69c-4.68-2.71-9.73-4.08-15.14-4.1l-12.72-0.21c-10.18-0.16-20.37-0.33-30.55-0.49l-37.1-0.6c-10.65-0.17-21.31-0.34-31.96-0.52-5.18-0.08-10.36-0.2-15.54-0.25h-0.22c-4.13-0.16-7.98 0.71-11.56 2.58-3.72 1.21-6.94 3.28-9.65 6.2-2.93 2.72-4.99 5.94-6.2 9.65-1.88 3.58-2.74 7.43-2.58 11.56 0.36 2.66 0.71 5.32 1.07 7.98 1.43 5.08 4 9.49 7.72 13.24l6.07 4.69c4.68 2.71 9.72 4.08 15.14 4.1zM323.48 728.45c3.59 0.04 7.19 0.07 10.78 0.11l25.89 0.27c10.39 0.11 20.79 0.21 31.18 0.32 9.02 0.09 18.05 0.19 27.07 0.28 4.38 0.05 8.76 0.12 13.13 0.14h0.19c4.13 0.16 7.98-0.71 11.56-2.58 3.72-1.21 6.94-3.28 9.65-6.2 2.93-2.72 4.99-5.94 6.2-9.65 1.88-3.58 2.74-7.43 2.58-11.56-0.36-2.66-0.71-5.32-1.07-7.98-1.43-5.08-4-9.49-7.72-13.24l-6.07-4.69c-4.68-2.71-9.73-4.08-15.14-4.1-3.59-0.04-7.19-0.07-10.78-0.11l-25.89-0.27c-10.39-0.11-20.79-0.21-31.18-0.32-9.02-0.09-18.05-0.19-27.07-0.28-4.38-0.05-8.76-0.12-13.13-0.14h-0.19c-4.13-0.16-7.98 0.71-11.56 2.58-3.72 1.21-6.94 3.28-9.65 6.2-2.93 2.72-4.99 5.94-6.2 9.65-1.88 3.58-2.74 7.43-2.58 11.56 0.36 2.66 0.71 5.32 1.07 7.98 1.43 5.08 4 9.49 7.72 13.24l6.07 4.69c4.68 2.72 9.72 4.08 15.14 4.1zM740.03 578.91c0.15 0.19 0.3 0.38 0.44 0.57-1.3-1.69-2.61-3.37-3.91-5.06 6.52 8.45 11.96 17.69 16.13 27.52l-2.52-5.97c4.23 10.03 7.12 20.59 8.59 31.37-0.3-2.22-0.6-4.43-0.89-6.65 1.47 10.97 1.48 22.1 0.02 33.07 0.3-2.22 0.6-4.43 0.89-6.65-1.47 10.87-4.35 21.5-8.59 31.61l2.52-5.97c-4.15 9.84-9.56 19.1-16.09 27.56 1.3-1.69 2.61-3.37 3.91-5.06a125.113 125.113 0 0 1-22.13 22.1c1.69-1.3 3.37-2.61 5.06-3.91-8.45 6.52-17.69 11.96-27.52 16.13l5.97-2.52a123.827 123.827 0 0 1-31.37 8.59c2.22-0.3 4.43-0.6 6.65-0.89-10.97 1.47-22.1 1.48-33.07 0.02 2.22 0.3 4.43 0.6 6.65 0.89-10.87-1.47-21.5-4.35-31.61-8.59l5.97 2.52c-9.84-4.15-19.1-9.56-27.56-16.09 1.69 1.3 3.37 2.61 5.06 3.91a125.113 125.113 0 0 1-22.1-22.13c1.3 1.69 2.61 3.37 3.91 5.06-6.52-8.45-11.96-17.69-16.13-27.52a76591182022511300 76591182022511300 0 0 0-6.07-25.4c0.3 2.22 0.6 4.43 0.89 6.65-1.47-10.97-1.48-22.1-0.02-33.07-0.3 2.22-0.6 4.43-0.89 6.65 1.47-10.87 4.35-21.5 8.59-31.61l-2.52 5.97c4.15-9.84 9.56-19.1 16.09-27.56-1.3 1.69-2.61 3.37-3.91 5.06 6.42-8.27 13.86-15.68 22.13-22.1-1.69 1.3-3.37 2.61-5.06 3.91 8.45-6.52 17.69-11.96 27.52-16.13l-5.97 2.52c10.03-4.23 20.59-7.12 31.37-8.59-2.22 0.3-4.43 0.6-6.65 0.89 10.97-1.47 22.1-1.48 33.07-0.02-2.22-0.3-4.43-0.6-6.65-0.89 10.87 1.47 21.5 4.35 31.61 8.59l-5.97-2.52c9.84 4.15 19.1 9.56 27.56 16.09-1.69-1.3-3.37-2.61-5.06-3.91a125.55 125.55 0 0 1 21.66 21.56c2.26 2.44 4.95 4.16 8.05 5.17 2.98 1.57 6.19 2.28 9.63 2.15 3.44 0.13 6.65-0.59 9.63-2.15 3.1-1.01 5.78-2.73 8.05-5.17 4.37-4.76 7.62-11.02 7.32-17.68-0.3-2.22-0.6-4.43-0.89-6.65-1.19-4.24-3.33-7.91-6.43-11.03-9.34-11.88-20.88-21.88-33.4-30.29a124.19 124.19 0 0 0-16.55-9.35c-7.53-3.51-15.28-6.71-23.26-9.06-6-1.77-12.12-3.07-18.31-3.92-8.28-1.14-16.46-2.12-24.83-2.03-8.39 0.09-16.76 1.13-25.03 2.48-6.24 1.01-12.41 2.51-18.42 4.47-3.04 0.99-6.04 2.1-8.99 3.33-4.87 2.02-9.75 4.04-14.45 6.42-5.87 2.98-11.49 6.43-16.82 10.3-7.01 5.1-13.84 10.51-19.97 16.65-6.01 6.02-11.32 12.71-16.32 19.58-3.75 5.15-7.09 10.58-9.99 16.25a166.4 166.4 0 0 0-9.65 22.88c-1.99 5.93-3.54 12-4.62 18.16-1.44 8.22-2.5 16.59-2.71 24.94-0.16 6.26 0.16 12.53 0.95 18.74 1.07 8.4 2.29 16.69 4.62 24.84 2.31 8.11 5.53 15.97 9.05 23.63a122.74 122.74 0 0 0 9.58 17.08c2.98 4.45 6.28 8.67 9.59 12.87 2.07 2.62 4.23 5.16 6.5 7.61 4.44 4.79 9.25 9.22 14.39 13.25 6.65 5.21 13.34 10.2 20.71 14.34 7.23 4.05 14.91 7.36 22.64 10.29 13.66 5.16 28.31 7.76 42.86 8.66 6.24 0.38 12.51 0.3 18.74-0.26 8.36-0.75 16.76-1.94 24.92-3.94 6.19-1.52 12.26-3.51 18.13-5.97 7.92-3.31 15.66-6.74 22.98-11.25 7.37-4.54 14.35-9.85 20.91-15.48 4.94-4.24 9.55-8.86 13.77-13.83 5.44-6.41 10.59-13.18 14.99-20.36s7.77-14.77 11.01-22.53c5.69-13.62 8.54-27.92 9.99-42.58 1.43-14.57 0.11-29.4-2.83-43.71a122 122 0 0 0-5.27-18.28c-2.97-7.94-6.38-15.81-10.55-23.21-4.15-7.36-9.16-14.04-14.36-20.69-2.26-2.44-4.95-4.16-8.05-5.17-2.98-1.57-6.19-2.28-9.63-2.15-3.44-0.13-6.65 0.59-9.63 2.15-3.1 1.01-5.78 2.73-8.05 5.17-4.37 4.76-7.62 11.02-7.32 17.68 0.3 2.22 0.6 4.43 0.89 6.65 1.19 4.21 3.33 7.89 6.43 11z"
    fill="#0085FF" p-id="6361"></path>
  <path
    d="M718.99 752.28c2.91 3.71 5.82 7.42 8.72 11.13l20.94 26.73c8.42 10.74 16.83 21.48 25.25 32.23 7.28 9.29 14.55 18.58 21.83 27.87 3.55 4.53 7.04 9.11 10.65 13.6 0.05 0.06 0.1 0.13 0.15 0.19 2.26 2.44 4.95 4.16 8.05 5.17 2.98 1.57 6.19 2.28 9.63 2.15 3.44 0.13 6.65-0.59 9.63-2.15 3.1-1.01 5.78-2.73 8.05-5.17 4.37-4.76 7.62-11.02 7.32-17.68-0.3-2.22-0.6-4.43-0.89-6.65-1.19-4.24-3.33-7.91-6.43-11.03a8465.5 8465.5 0 0 1-8.72-11.13l-20.94-26.73c-8.42-10.74-16.83-21.48-25.25-32.23-7.28-9.29-14.55-18.58-21.83-27.87-3.55-4.53-7.04-9.11-10.65-13.6-0.05-0.06-0.1-0.13-0.15-0.19-2.26-2.44-4.95-4.16-8.05-5.17-2.98-1.57-6.19-2.28-9.63-2.15-3.44-0.13-6.65 0.59-9.63 2.15-3.1 1.01-5.78 2.73-8.05 5.17-4.37 4.76-7.62 11.02-7.32 17.68 0.3 2.22 0.6 4.43 0.89 6.65 1.18 4.23 3.33 7.91 6.43 11.03z"
    fill="#0085FF" p-id="6362"></path>
</svg>
