<svg xmlns="http://www.w3.org/2000/svg" width="22" height="22" viewBox="0 0 22 22" fill="none">
  <path
    d="M9.58377 3.81478C12.5393 3.8195 15.011 6.062 15.3021 9.00311C15.5935 11.9442 13.6096 14.6281 10.7127 15.2123C7.81543 15.7967 4.94655 14.0917 4.07516 11.2676C3.20377 8.44339 4.61266 5.41839 7.33516 4.26839C8.04655 3.96747 8.81135 3.81318 9.58377 3.81478ZM9.58377 2.48145C5.65655 2.48145 2.47266 5.66533 2.47266 9.59256C2.47266 13.5198 5.65655 16.7037 9.58377 16.7037C13.511 16.7037 16.6949 13.5198 16.6949 9.59256C16.6949 5.66533 13.511 2.48145 9.58377 2.48145ZM18.8504 19.5259C18.7628 19.5261 18.6761 19.5089 18.5952 19.4753C18.5143 19.4417 18.4408 19.3925 18.379 19.3303L15.0013 15.9526C14.7488 15.6909 14.7524 15.2751 15.0093 15.0178C15.2665 14.7606 15.6824 14.757 15.9438 15.0098L19.3215 18.3876C19.4147 18.4808 19.4782 18.5996 19.5039 18.7288C19.5296 18.8581 19.5164 18.9921 19.466 19.1139C19.4157 19.2358 19.3303 19.34 19.2207 19.4134C19.1112 19.4867 18.9823 19.5259 18.8504 19.5259Z"
    fill="white" />
</svg>
