<svg width="26" height="26" viewBox="0 0 26 26" fill="none" xmlns="http://www.w3.org/2000/svg">
  <path fill-rule="evenodd" clip-rule="evenodd"
    d="M8 0H18C22.4183 0 26 3.58172 26 8V18C26 22.4183 22.4183 26 18 26H8C3.58172 26 0 22.4183 0 18V8C0 3.58172 3.58172 0 8 0Z"
    fill="#1F282C" />
  <path
    d="M8 3C5.23858 3 3 5.23858 3 8V18C3 20.7614 5.23858 23 8 23H18C20.7614 23 23 20.7614 23 18V8C23 5.23858 20.7614 3 18 3H8Z"
    fill="#00141D" />
  <path
    d="M7.29289 15.1493C7.68342 14.8021 8.31658 14.8021 8.70711 15.1493L10 16.2985V6.88894C10 6.39802 10.4477 6.00005 11 6.00005C11.5523 6.00005 12 6.39802 12 6.88894V18.4445C12 18.804 11.7564 19.1281 11.3827 19.2657C11.009 19.4033 10.5789 19.3272 10.2929 19.073L7.29289 16.4063C6.90237 16.0592 6.90237 15.4964 7.29289 15.1493Z"
    fill="#fff" opacity="1" />
  <path
    d="M18.3737 10.1841C17.9832 10.5312 17.35 10.5312 16.9595 10.1841L15.6666 9.03488V18.4444C15.6666 18.9354 15.2189 19.3333 14.6666 19.3333C14.1143 19.3333 13.6666 18.9354 13.6666 18.4444V6.88891C13.6666 6.52939 13.9103 6.20527 14.2839 6.06769C14.6576 5.93011 15.0877 6.00616 15.3737 6.26038L18.3737 8.92704C18.7642 9.27417 18.7642 9.83698 18.3737 10.1841Z"
    fill="#fff" opacity="1" />
</svg>
