<svg xmlns="http://www.w3.org/2000/svg" width="26" height="26" viewBox="0 0 26 26" fill="none">
  <mask id="path-1-outside-1_9471_1787" maskUnits="userSpaceOnUse" x="0" y="0" width="26"
    height="26" fill="black">
    <rect fill="white" width="26" height="26" />
    <path fill-rule="evenodd" clip-rule="evenodd"
      d="M8 3C5.23858 3 3 5.23858 3 8V18C3 20.7614 5.23858 23 8 23H18C20.7614 23 23 20.7614 23 18V8C23 5.23858 20.7614 3 18 3H8ZM16.9595 10.5174C17.35 10.8646 17.9832 10.8646 18.3737 10.5174C18.7642 10.1703 18.7642 9.60748 18.3737 9.26035L15.3737 6.59369C15.0877 6.33947 14.6576 6.26342 14.2839 6.401C13.9103 6.53858 13.6666 6.86271 13.6666 7.22223V18.7778C13.6666 19.2687 14.1143 19.6666 14.6666 19.6666C15.2189 19.6666 15.6666 19.2687 15.6666 18.7778V9.36819L16.9595 10.5174ZM10 16.6318L8.70711 15.4826C8.31658 15.1355 7.68342 15.1355 7.29289 15.4826C6.90237 15.8297 6.90237 16.3925 7.29289 16.7397L10.2929 19.4063C10.5789 19.6605 11.009 19.7366 11.3827 19.599C11.7564 19.4614 12 19.1373 12 18.7778V7.22225C12 6.73133 11.5523 6.33336 11 6.33336C10.4477 6.33336 10 6.73133 10 7.22225V16.6318Z" />
  </mask>
  <path fill-rule="evenodd" clip-rule="evenodd"
    d="M8 3C5.23858 3 3 5.23858 3 8V18C3 20.7614 5.23858 23 8 23H18C20.7614 23 23 20.7614 23 18V8C23 5.23858 20.7614 3 18 3H8ZM16.9595 10.5174C17.35 10.8646 17.9832 10.8646 18.3737 10.5174C18.7642 10.1703 18.7642 9.60748 18.3737 9.26035L15.3737 6.59369C15.0877 6.33947 14.6576 6.26342 14.2839 6.401C13.9103 6.53858 13.6666 6.86271 13.6666 7.22223V18.7778C13.6666 19.2687 14.1143 19.6666 14.6666 19.6666C15.2189 19.6666 15.6666 19.2687 15.6666 18.7778V9.36819L16.9595 10.5174ZM10 16.6318L8.70711 15.4826C8.31658 15.1355 7.68342 15.1355 7.29289 15.4826C6.90237 15.8297 6.90237 16.3925 7.29289 16.7397L10.2929 19.4063C10.5789 19.6605 11.009 19.7366 11.3827 19.599C11.7564 19.4614 12 19.1373 12 18.7778V7.22225C12 6.73133 11.5523 6.33336 11 6.33336C10.4477 6.33336 10 6.73133 10 7.22225V16.6318Z"
    fill="white" />
  <path
    d="M16.9595 10.5174L18.9526 8.2752L18.9526 8.2752L16.9595 10.5174ZM18.3737 9.26035L20.3668 7.01812L20.3668 7.01812L18.3737 9.26035ZM15.3737 6.59369L17.3668 4.35146L17.3668 4.35146L15.3737 6.59369ZM14.2839 6.401L15.3205 9.21624L15.3205 9.21624L14.2839 6.401ZM15.6666 9.36819L17.6597 7.12596L12.6666 2.68767V9.36819H15.6666ZM8.70711 15.4826L10.7002 13.2404L10.7002 13.2404L8.70711 15.4826ZM10 16.6318L8.00691 18.8741L13 23.3123V16.6318H10ZM7.29289 15.4826L5.2998 13.2404L5.2998 13.2404L7.29289 15.4826ZM7.29289 16.7397L5.2998 18.9819L5.2998 18.9819L7.29289 16.7397ZM10.2929 19.4063L12.286 17.1641L12.286 17.1641L10.2929 19.4063ZM11.3827 19.599L12.4192 22.4143L12.4192 22.4142L11.3827 19.599ZM6 8C6 6.89543 6.89543 6 8 6V0C3.58172 0 0 3.58172 0 8H6ZM6 18V8H0V18H6ZM8 20C6.89543 20 6 19.1046 6 18H0C0 22.4183 3.58172 26 8 26V20ZM18 20H8V26H18V20ZM20 18C20 19.1046 19.1046 20 18 20V26C22.4183 26 26 22.4183 26 18H20ZM20 8V18H26V8H20ZM18 6C19.1046 6 20 6.89543 20 8H26C26 3.58172 22.4183 0 18 0V6ZM8 6H18V0H8V6ZM16.3806 8.2752C16.7888 7.9124 17.2638 7.77777 17.6666 7.77777C18.0695 7.77777 18.5445 7.9124 18.9526 8.2752L14.9664 12.7597C16.4936 14.1171 18.8396 14.1171 20.3668 12.7597L16.3806 8.2752ZM16.3806 11.5026C15.955 11.1242 15.6666 10.5441 15.6666 9.88889C15.6666 9.23365 15.955 8.65356 16.3806 8.2752L20.3668 12.7597C22.0999 11.2191 22.0999 8.55863 20.3668 7.01812L16.3806 11.5026ZM13.3806 8.83592L16.3806 11.5026L20.3668 7.01812L17.3668 4.35146L13.3806 8.83592ZM15.3205 9.21624C14.7086 9.44154 13.9627 9.35333 13.3806 8.83592L17.3668 4.35146C16.2127 3.32561 14.6066 3.0853 13.2474 3.58576L15.3205 9.21624ZM16.6666 7.22223C16.6666 8.28888 15.9595 8.98095 15.3205 9.21624L13.2474 3.58576C11.861 4.09622 10.6666 5.43653 10.6666 7.22223H16.6666ZM16.6666 18.7778V7.22223H10.6666V18.7778H16.6666ZM14.6666 16.6666C15.4292 16.6666 16.6666 17.2894 16.6666 18.7778H10.6666C10.6666 21.248 12.7994 22.6666 14.6666 22.6666V16.6666ZM12.6666 18.7778C12.6666 17.2894 13.904 16.6666 14.6666 16.6666V22.6666C16.5338 22.6666 18.6666 21.248 18.6666 18.7778H12.6666ZM12.6666 9.36819V18.7778H18.6666V9.36819H12.6666ZM18.9526 8.2752L17.6597 7.12596L13.6735 11.6104L14.9664 12.7597L18.9526 8.2752ZM6.71402 17.7248L8.00691 18.8741L11.9931 14.3896L10.7002 13.2404L6.71402 17.7248ZM9.28598 17.7248C8.87784 18.0876 8.40284 18.2222 8 18.2222C7.59716 18.2222 7.12216 18.0876 6.71402 17.7248L10.7002 13.2404C9.17301 11.8829 6.82699 11.8829 5.2998 13.2404L9.28598 17.7248ZM9.28598 14.4974C9.71164 14.8758 10 15.4559 10 16.1111C10 16.7664 9.71164 17.3465 9.28598 17.7248L5.2998 13.2404C3.56673 14.7809 3.56673 17.4414 5.2998 18.9819L9.28598 14.4974ZM12.286 17.1641L9.28598 14.4974L5.2998 18.9819L8.2998 21.6486L12.286 17.1641ZM10.3462 16.7838C10.958 16.5585 11.7039 16.6467 12.286 17.1641L8.2998 21.6486C9.4539 22.6744 11.06 22.9147 12.4192 22.4143L10.3462 16.7838ZM9 18.7778C9 17.7111 9.70711 17.0191 10.3461 16.7838L12.4192 22.4142C13.8056 21.9038 15 20.5635 15 18.7778H9ZM9 7.22225V18.7778H15V7.22225H9ZM11 9.33336C10.2374 9.33336 9 8.71061 9 7.22225H15C15 4.75205 12.8672 3.33336 11 3.33336V9.33336ZM13 7.22225C13 8.71061 11.7626 9.33336 11 9.33336V3.33336C9.13281 3.33336 7 4.75205 7 7.22225H13ZM13 16.6318V7.22225H7V16.6318H13Z"
    fill="none" mask="url(#path-1-outside-1_9471_1787)" />
</svg>
