<svg xmlns="http://www.w3.org/2000/svg" width="36" height="36" viewBox="0 0 36 36" fill="none">
  <path fill-rule="evenodd" clip-rule="evenodd"
    d="M4.5 18C4.5 25.4558 10.5442 31.5 18 31.5C25.4558 31.5 31.5 25.4558 31.5 18C31.5 10.5442 25.4558 4.5 18 4.5C10.5442 4.5 4.5 10.5442 4.5 18ZM23.5559 18.4116C23.5989 18.3044 23.6641 18.0768 23.5944 17.7962C23.5189 17.4927 23.3992 17.371 23.3199 17.3224L23.2497 17.2921L19.747 17.2903L19.7471 10.125H16.3957L16.3948 17.2903L12.6629 17.2903L12.6501 17.2956L12.5691 17.3529C12.4998 17.4186 12.4121 17.5484 12.3807 17.7962C12.3473 18.0682 12.4695 18.245 12.5195 18.3174C12.5226 18.322 12.5255 18.3261 12.528 18.3298L17.1934 25.2302L17.2522 25.3309C17.3696 25.5123 17.6628 25.875 18.1286 25.875C18.5838 25.875 18.8373 25.6176 18.9357 25.4888L23.5252 18.478L23.5559 18.4116Z"
    fill="white" />
</svg>
