<svg width="35" height="18" viewBox="0 0 35 18" fill="none" xmlns="http://www.w3.org/2000/svg">
<path d="M8.75136 12.158C8.52646 12.4157 8.23909 12.5445 7.88925 12.5445C7.53941 12.5445 7.24787 12.4557 7.01464 12.2779C6.78974 12.0913 6.67729 11.8381 6.67729 11.5181V9.45203C6.67729 9.13212 6.78974 8.88329 7.01464 8.70556C7.24787 8.51895 7.53941 8.42564 7.88925 8.42564C8.23909 8.42564 8.52646 8.55894 8.75136 8.82553C8.98459 9.08324 9.1012 9.43426 9.1012 9.87859V11.0916C9.1012 11.5359 8.98459 11.8914 8.75136 12.158Z" fill="#00B3FF"/>
<path d="M14.2414 8.6789C14.4579 8.41231 14.7536 8.27901 15.1285 8.27901C15.5033 8.27901 15.7782 8.41231 15.9531 8.6789C16.1364 8.93661 16.228 9.27874 16.228 9.7053V9.82527H13.929V9.71863C13.929 9.28319 14.0331 8.93661 14.2414 8.6789Z" fill="#00B3FF"/>
<path d="M27.3022 12.5579C27.0856 12.7001 26.8232 12.7711 26.515 12.7711C26.2402 12.7711 26.0278 12.7134 25.8778 12.5979C25.7279 12.4735 25.6529 12.2824 25.6529 12.0247V11.8247C25.6529 11.3004 26.0153 11.0383 26.7399 11.0383H27.6395V11.8647C27.6395 12.1846 27.5271 12.4157 27.3022 12.5579Z" fill="#00B3FF"/>
<path fill-rule="evenodd" clip-rule="evenodd" d="M2 0C0.895431 0 0 0.89543 0 2V16C0 17.1046 0.89543 18 2 18H33C34.1046 18 35 17.1046 35 16V2C35 0.895431 34.1046 0 33 0H2ZM6.67729 4.12012H4.82812V13.9842H6.67729V12.8111H6.73977C6.78974 12.9978 6.86887 13.1755 6.97716 13.3443C7.08544 13.5043 7.21455 13.6465 7.36448 13.7709C7.52275 13.8864 7.69767 13.9753 7.88925 14.0375C8.08083 14.1086 8.2849 14.1441 8.50147 14.1441C9.33443 14.1441 9.96332 13.8331 10.3881 13.211C10.8129 12.5801 11.0253 11.6692 11.0253 10.4784C11.0253 9.28763 10.8129 8.38121 10.3881 7.75915C9.96332 7.13709 9.33443 6.82606 8.50147 6.82606C8.07666 6.82606 7.69767 6.95048 7.36448 7.1993C7.03963 7.44812 6.83139 7.76804 6.73977 8.15904H6.67729V4.12012ZM13.8291 13.8909C14.2205 14.0597 14.6662 14.1441 15.166 14.1441C15.7657 14.1441 16.2988 14.0419 16.7652 13.8375C17.24 13.6331 17.6232 13.3488 17.9147 12.9844L16.9901 11.7581C16.7819 11.9891 16.557 12.1891 16.3154 12.3579C16.0739 12.5179 15.7615 12.5979 15.3784 12.5979C14.8786 12.5979 14.5121 12.4646 14.2789 12.198C14.0456 11.9225 13.929 11.5537 13.929 11.0916V10.985H18.1396V10.3984C18.1396 9.92746 18.0813 9.47869 17.9647 9.05214C17.8564 8.6167 17.6773 8.23458 17.4274 7.90578C17.1859 7.57698 16.8694 7.31482 16.4779 7.11932C16.0947 6.92382 15.6324 6.82606 15.091 6.82606C14.5995 6.82606 14.1622 6.91493 13.7791 7.09266C13.3959 7.2615 13.0711 7.50588 12.8045 7.8258C12.5463 8.14571 12.3506 8.53228 12.2173 8.98549C12.084 9.42982 12.0174 9.92746 12.0174 10.4784C12.0174 11.0383 12.084 11.5448 12.2173 11.998C12.3589 12.4512 12.563 12.8378 12.8295 13.1577C13.1044 13.4687 13.4376 13.7131 13.8291 13.8909ZM21.7445 13.9842C21.1032 13.9842 20.6159 13.8109 20.2827 13.4643C19.9578 13.1177 19.7954 12.6112 19.7954 11.9447V8.51895H18.8708V6.98602H19.3331C19.583 6.98602 19.7538 6.92382 19.8454 6.7994C19.937 6.66611 19.9828 6.47949 19.9828 6.23955V5.09319H21.6446V6.98602H22.944V8.51895H21.6446V12.4512H22.844V13.9842H21.7445ZM28.2393 13.6509C28.4642 13.8731 28.7432 13.9842 29.0764 13.9842H30.1009V12.4512H29.4887V9.38538C29.4887 8.55005 29.2555 7.91466 28.789 7.47922C28.3226 7.04378 27.6229 6.82606 26.69 6.82606C25.9986 6.82606 25.4489 6.94603 25.0407 7.18597C24.6409 7.41702 24.3077 7.74138 24.0412 8.15904L25.1407 9.19877C25.2823 8.98549 25.4614 8.79443 25.6779 8.62559C25.8945 8.45674 26.186 8.37232 26.5525 8.37232C26.944 8.37232 27.2231 8.47451 27.3897 8.6789C27.5562 8.87441 27.6395 9.141 27.6395 9.47869V9.91858H26.6025C25.7362 9.91858 25.049 10.1007 24.5409 10.4651C24.0412 10.8206 23.7913 11.3671 23.7913 12.1047C23.7913 12.7178 23.9662 13.211 24.316 13.5843C24.6659 13.9575 25.1698 14.1441 25.8279 14.1441C26.3276 14.1441 26.7483 14.0286 27.0898 13.7975C27.4313 13.5576 27.652 13.211 27.752 12.7578H27.827C27.8853 13.1311 28.0227 13.4288 28.2393 13.6509Z" fill="#00B3FF"/>
</svg>
