<svg width="226" height="12" viewBox="0 0 226 12" fill="none" xmlns="http://www.w3.org/2000/svg">
<path d="M0.226497 6L6 11.7735L11.7735 6L6 0.226497L0.226497 6ZM226 6L216 0.226497V11.7735L226 6ZM6 7H7.96429V5H6V7ZM11.8929 7H15.8214V5H11.8929V7ZM19.75 7H23.6786V5H19.75V7ZM27.6071 7H31.5357V5H27.6071V7ZM35.4643 7H39.3929V5H35.4643V7ZM43.3214 7H47.25V5H43.3214V7ZM51.1786 7H55.1071V5H51.1786V7ZM59.0357 7H62.9643V5H59.0357V7ZM66.8928 7H70.8214V5H66.8928V7ZM74.75 7H78.6786V5H74.75V7ZM82.6071 7H86.5357V5H82.6071V7ZM90.4643 7H94.3929V5H90.4643V7ZM98.3214 7H102.25V5H98.3214V7ZM106.179 7H110.107V5H106.179V7ZM114.036 7H117.964V5H114.036V7ZM121.893 7H125.821V5H121.893V7ZM129.75 7H133.679V5H129.75V7ZM137.607 7H141.536V5H137.607V7ZM145.464 7H149.393V5H145.464V7ZM153.321 7H157.25V5H153.321V7ZM161.179 7H165.107V5H161.179V7ZM169.036 7H172.964V5H169.036V7ZM176.893 7H180.821V5H176.893V7ZM184.75 7H188.679V5H184.75V7ZM192.607 7H196.536V5H192.607V7ZM200.464 7H204.393V5H200.464V7ZM208.321 7H212.25V5H208.321V7ZM216.179 7H220.107V5H216.179V7Z" fill="#282D3B"/>
</svg>
