<?xml version="1.0" standalone="no"?><!DOCTYPE svg PUBLIC "-//W3C//DTD SVG 1.1//EN" "http://www.w3.org/Graphics/SVG/1.1/DTD/svg11.dtd"><svg t="1650525271687" class="icon" viewBox="0 0 1024 1024" version="1.1" xmlns="http://www.w3.org/2000/svg" p-id="10339" xmlns:xlink="http://www.w3.org/1999/xlink" width="48" height="48"><defs><style type="text/css">@font-face { font-family: feedback-iconfont; src: url("//at.alicdn.com/t/font_1031158_u69w8yhxdu.woff2?t=1630033759944") format("woff2"), url("//at.alicdn.com/t/font_1031158_u69w8yhxdu.woff?t=1630033759944") format("woff"), url("//at.alicdn.com/t/font_1031158_u69w8yhxdu.ttf?t=1630033759944") format("truetype"); }
</style></defs><path d="M704.213333 149.546667a29.866667 29.866667 0 0 1 42.24 0l128 128a29.866667 29.866667 0 0 1 0 42.24l-128 128a29.866667 29.866667 0 0 1-42.24-42.24l71.936-71.936c-80.298667 10.837333-138.154667 38.357333-177.962666 77.866666-51.541333 51.2-77.653333 127.317333-77.653334 228.522667a29.866667 29.866667 0 1 1-59.733333 0c0-110.933333 28.714667-204.8 95.274667-270.933333 54.442667-54.016 130.944-86.272 228.778666-96.64l-80.64-80.64a29.866667 29.866667 0 0 1 0-42.24zM183.466667 298.666667A115.2 115.2 0 0 1 298.666667 183.466667h234.666666a29.866667 29.866667 0 1 1 0 59.733333H298.666667A55.466667 55.466667 0 0 0 243.2 298.666667v426.666666A55.466667 55.466667 0 0 0 298.666667 780.8h426.666666a55.466667 55.466667 0 0 0 55.466667-55.466667v-192a29.866667 29.866667 0 1 1 59.733333 0V725.333333a115.2 115.2 0 0 1-115.2 115.2H298.666667A115.2 115.2 0 0 1 183.466667 725.333333V298.666667z" p-id="10340" fill="#4429D6"></path></svg>