<?xml version="1.0" standalone="no"?><!DOCTYPE svg PUBLIC "-//W3C//DTD SVG 1.1//EN" "http://www.w3.org/Graphics/SVG/1.1/DTD/svg11.dtd"><svg t="1650463313052" class="icon" viewBox="0 0 1024 1024" version="1.1" xmlns="http://www.w3.org/2000/svg" p-id="2057" width="48" height="48" xmlns:xlink="http://www.w3.org/1999/xlink"><defs><style type="text/css">@font-face { font-family: feedback-iconfont; src: url("//at.alicdn.com/t/font_1031158_u69w8yhxdu.woff2?t=1630033759944") format("woff2"), url("//at.alicdn.com/t/font_1031158_u69w8yhxdu.woff?t=1630033759944") format("woff"), url("//at.alicdn.com/t/font_1031158_u69w8yhxdu.ttf?t=1630033759944") format("truetype"); }
</style></defs><path d="M876.544 132.096c-46.3872-46.3872-110.2848-55.3984-192.2048-55.3984H337.92c-80.5888 0-144.896 9.472-190.8224 55.3472C100.7104 178.3808 92.16 241.8688 92.16 322.8672v343.3472c0 81.92 8.5504 145.3568 54.4256 191.6928 46.7968 45.8752 110.6944 54.8864 192.6144 54.8864h345.1392c81.92 0 145.8176-9.0112 192.1536-54.8864 46.336-46.336 54.8864-109.824 54.8864-191.6928V323.7376c0-81.92-8.5504-145.7664-54.8864-191.6928z m-33.3312 179.5072v366.7456c0 46.7968-6.2976 90.0096-31.0784 114.7392-25.1904 25.1904-68.8128 31.488-115.2 31.488H326.656c-46.336 0-90.0096-6.2976-115.2-31.488-25.1904-24.7296-31.0784-67.9424-31.0784-114.7392V312.5248c0-47.7184 5.888-90.9312 30.6176-116.1216 25.1904-25.1904 69.3248-31.488 116.5312-31.488h369.4592c46.3872 0 90.0096 6.7584 115.2 31.488 25.2416 25.1904 31.0784 68.4032 31.0784 115.2z m-190.8224 299.7248c22.016 0 36.864-16.6912 36.864-40.5504V361.5744c0-31.0784-17.5104-44.544-45.4144-44.544H433.2544c-23.8592 0-39.6288 14.336-39.6288 36.4032 0 22.528 15.7696 36.9152 40.0896 36.9152h76.032l61.6448-6.7584-66.56 60.7744-158.0032 157.952a41.3696 41.3696 0 0 0-12.5952 28.7744c0 23.8592 16.6912 39.168 39.168 39.168 12.5952 0 22.016-4.096 30.6176-12.1344l157.0304-157.5424 60.7744-66.1504-6.7584 64.8192v71.9872c0 24.7808 14.848 40.0896 37.376 40.0896z" fill="#1296db" p-id="2058"></path></svg>