<?xml version="1.0" encoding="UTF-8"?>
<svg width="256px" height="256px" viewBox="0 0 256 256" version="1.1" xmlns="http://www.w3.org/2000/svg" xmlns:xlink="http://www.w3.org/1999/xlink">
    <title>CKTON</title>
    <defs>
        <linearGradient x1="50%" y1="0%" x2="50%" y2="100%" id="linearGradient-1">
            <stop stop-color="#8959DF" offset="0%"></stop>
            <stop stop-color="#512DBC" offset="100%"></stop>
        </linearGradient>
        <linearGradient x1="50%" y1="0%" x2="50%" y2="100%" id="linearGradient-2">
            <stop stop-color="#8959DF" offset="0%"></stop>
            <stop stop-color="#512DBC" offset="100%"></stop>
        </linearGradient>
        <linearGradient x1="50%" y1="0%" x2="50%" y2="100%" id="linearGradient-3">
            <stop stop-color="#8959DF" offset="0%"></stop>
            <stop stop-color="#512DBC" offset="100%"></stop>
        </linearGradient>
        <linearGradient x1="100%" y1="50%" x2="0%" y2="50%" id="linearGradient-4">
            <stop stop-color="#8959DF" offset="0%"></stop>
            <stop stop-color="#512DBC" offset="100%"></stop>
        </linearGradient>
        <linearGradient x1="50%" y1="0%" x2="50%" y2="100%" id="linearGradient-5">
            <stop stop-color="#8959DF" offset="0%"></stop>
            <stop stop-color="#512DBC" offset="100%"></stop>
        </linearGradient>
        <linearGradient x1="50%" y1="0%" x2="50%" y2="100%" id="linearGradient-6">
            <stop stop-color="#8959DF" offset="0%"></stop>
            <stop stop-color="#512DBC" offset="100%"></stop>
        </linearGradient>
        <linearGradient x1="50%" y1="0%" x2="50%" y2="100%" id="linearGradient-7">
            <stop stop-color="#8959DF" offset="0%"></stop>
            <stop stop-color="#512DBC" offset="100%"></stop>
        </linearGradient>
        <linearGradient x1="50%" y1="0%" x2="50%" y2="100%" id="linearGradient-8">
            <stop stop-color="#8959DF" offset="0%"></stop>
            <stop stop-color="#512DBC" offset="100%"></stop>
        </linearGradient>
        <linearGradient x1="50%" y1="0%" x2="50%" y2="100%" id="linearGradient-9">
            <stop stop-color="#8959DF" offset="0%"></stop>
            <stop stop-color="#512DBC" offset="100%"></stop>
        </linearGradient>
        <linearGradient x1="50%" y1="0%" x2="50%" y2="100%" id="linearGradient-10">
            <stop stop-color="#8959DF" offset="0%"></stop>
            <stop stop-color="#512DBC" offset="100%"></stop>
        </linearGradient>
    </defs>
    <g id="CKTON" stroke="none" stroke-width="1" fill="none" fill-rule="evenodd">
        <g id="CKTON@svg" transform="translate(0.000000, 28.000000)" fill-rule="nonzero">
            <polygon id="Path" fill="url(#linearGradient-1)" points="41.5521456 0 62.0426715 24.7450247 0 49.4900495"></polygon>
            <polygon id="Combined-Shape" fill="url(#linearGradient-2)" points="128.219201 124.688573 191.356337 49.4900495 223.558727 49.4900495 128.056027 163.788497"></polygon>
            <polygon id="Combined-Shape-Copy-16" fill="url(#linearGradient-3)" points="191.356337 49.4900495 0 49.4900495 62.0426715 24.7450247 203.51495 24.7450247 223.558727 49.4900495"></polygon>
            <polygon id="Combined-Shape-Copy-16" fill="url(#linearGradient-4)" points="191.356337 49.4900495 203.51495 24.7450247 223.558727 49.4900495"></polygon>
            <polygon id="Combined-Shape" fill="url(#linearGradient-5)" points="203.51495 24.7450247 62.0426715 24.7450247 41.5521456 0 214.838727 0"></polygon>
            <polygon id="Combined-Shape-Copy" fill="url(#linearGradient-6)" points="223.558727 49.4900495 203.51495 24.7450247 214.838727 0 256 49.4900495"></polygon>
            <polygon id="Combined-Shape-Copy" fill="url(#linearGradient-7)" points="128.056027 163.788497 223.558727 49.4900495 256 49.4900495 160.541032 163.184997 128.277821 201.75124"></polygon>
            <polygon id="Combined-Shape-Copy" fill="url(#linearGradient-8)" points="90.4549822 119.011786 128.184444 163.788497 128.406238 201.75124 42.1189648 98.9800988"></polygon>
            <polygon id="Combined-Shape-Copy" fill="url(#linearGradient-9)" points="90.4549822 119.011786 42.1189648 98.9800988 106.762627 98.9800988"></polygon>
            <polygon id="Combined-Shape" fill="url(#linearGradient-10)" points="106.762627 98.9800988 90.4549822 119.011786 128.184444 163.788497 128.347618 124.688573"></polygon>
        </g>
    </g>
</svg>