<?xml version="1.0" encoding="UTF-8"?>
<svg width="200px" height="200px" viewBox="0 0 200 200" version="1.1" xmlns="http://www.w3.org/2000/svg" xmlns:xlink="http://www.w3.org/1999/xlink">
    <title>CRING@svg</title>
    <defs>
        <linearGradient x1="100%" y1="91.8042029%" x2="0%" y2="8.19579715%" id="linearGradient-1">
            <stop stop-color="#FE3876" offset="0%"></stop>
            <stop stop-color="#7C30DD" offset="71.4447846%"></stop>
            <stop stop-color="#3A30DD" offset="100%"></stop>
        </linearGradient>
        <linearGradient x1="100%" y1="91.8042029%" x2="0%" y2="8.19579715%" id="linearGradient-2">
            <stop stop-color="#FE3876" offset="0%"></stop>
            <stop stop-color="#7C30DD" offset="71.4447846%"></stop>
            <stop stop-color="#3A30DD" offset="100%"></stop>
        </linearGradient>
    </defs>
    <g id="CRING" stroke="none" stroke-width="1" fill="none" fill-rule="evenodd">
        <g id="cRING" fill-rule="nonzero">
            <path d="M97.5724096,45.6043616 C63.8048364,45.4654509 33.9520465,62.4580094 15.8836107,88.2547312 C8.56686955,98.6976938 3.18181552,110.610886 0.251838304,123.465413 C0.0848967518,121.106048 0,118.723881 0,116.321779 C0,61.5171799 44.1919338,17.0892736 98.7052954,17.0892736 C157.933732,17.0892736 199.585836,58.1978535 199.585836,108.907857 C199.585836,148.390893 174.335291,182.053307 138.902506,195.023422 C130.291076,197.976521 121.492387,199.585836 112.319819,199.585836 C69.7116211,199.585836 32.9017651,164.860576 32.9017651,122.024797 C32.9017651,114.665586 33.9212507,107.545761 38.0950691,100.800279 C36.5288097,104.961006 36.3053959,108.048805 36.3053959,111.189064 C36.3053959,146.780557 66.1392547,174.492559 101.541654,174.492559 C136.944054,174.492559 165.643369,145.639953 165.643369,110.04846 C165.643369,79.9071918 145.060677,54.5989462 117.254918,47.5547037 C111.586975,46.4153115 105.792315,45.6313729 97.5724096,45.6043616 Z" id="Combined-Shape-Copy-34" fill="url(#linearGradient-1)" transform="translate(99.792918, 108.337555) rotate(180.000000) translate(-99.792918, -108.337555) "></path>
            <path d="M97.5724096,28.5150879 C63.8048364,28.3761773 33.9520465,45.3687357 15.8836107,71.1654575 C8.56686955,81.6084201 3.18181552,93.5216122 0.251838304,106.37614 C0.0848967518,104.016775 0,101.634607 0,99.2325057 C0,44.4279062 44.1919338,0 98.7052954,0 C157.933732,0 199.585836,41.1085798 199.585836,91.8185828 C199.585836,131.30162 174.335291,164.964034 138.902506,177.934148 C130.291076,180.887247 121.492387,182.496562 112.319819,182.496562 C69.7116211,182.496562 32.9017651,147.771302 32.9017651,104.935523 C32.9017651,97.5763129 33.9212507,90.4564875 38.0950691,83.7110051 C36.5288097,87.8717326 36.3053959,90.9595313 36.3053959,94.09979 C36.3053959,129.691283 66.1392547,157.403285 101.541654,157.403285 C136.944054,157.403285 165.643369,128.55068 165.643369,92.9591866 C165.643369,62.8179181 145.060677,37.5096726 117.254918,30.4654302 C111.586975,29.3260379 105.792315,28.5420992 97.5724096,28.5150879 Z" id="Combined-Shape-Copy-41" fill="url(#linearGradient-2)"></path>
        </g>
    </g>
</svg>