<?xml version="1.0" encoding="UTF-8"?>
<svg width="200px" height="200px" viewBox="0 0 200 200" version="1.1" xmlns="http://www.w3.org/2000/svg" xmlns:xlink="http://www.w3.org/1999/xlink">
    <title>WCRING@svg</title>
    <defs>
        <linearGradient x1="50%" y1="0%" x2="50%" y2="100%" id="linearGradient-1">
            <stop stop-color="#8959DF" offset="0%"></stop>
            <stop stop-color="#512DBC" offset="100%"></stop>
        </linearGradient>
        <linearGradient x1="50%" y1="0%" x2="50%" y2="100%" id="linearGradient-2">
            <stop stop-color="#8959DF" offset="0%"></stop>
            <stop stop-color="#512DBC" offset="100%"></stop>
        </linearGradient>
    </defs>
    <g id="WCRING" stroke="none" stroke-width="1" fill="none" fill-rule="evenodd">
        <g id="token-icon-wcring" fill-rule="nonzero">
            <g id="椭圆形">
                <circle fill="url(#linearGradient-1)" cx="100" cy="100" r="93.7759336"></circle>
                <circle fill="url(#linearGradient-1)" cx="100" cy="100" r="100"></circle>
                <circle fill="#000000" cx="100.5" cy="100.5" r="84.5"></circle>
            </g>
            <path d="M148.959351,65.9259259 C152.219177,65.9259259 154.861789,68.5790533 154.861789,71.8518519 C154.861789,75.0558672 152.329088,77.6659845 149.164045,77.774281 L141.952516,88.6343721 L141.873479,88.7513799 C140.222658,91.1540287 137.499088,92.5925926 134.585827,92.5925926 L134.585827,92.5925926 L125.845075,92.5924367 C126.663894,94.4739413 127.293713,96.4573244 127.71044,98.5183964 L146.296117,98.5185185 L146.391395,98.5169784 C147.341927,98.4862332 148.221987,97.9968139 148.75168,97.1991117 L148.75168,97.1991117 L155.695522,86.7419061 C155.16608,85.8534951 154.861789,84.8142764 154.861789,83.7037037 C154.861789,80.4309052 157.504401,77.7777778 160.764228,77.7777778 C164.024055,77.7777778 166.666667,80.4309052 166.666667,83.7037037 C166.666667,86.9401313 164.082464,89.570584 160.872677,89.6286495 L153.662806,100.486224 L153.583769,100.603232 C151.932948,103.005881 149.209378,104.444444 146.296117,104.444444 L146.296117,104.444444 L128.300815,104.444444 L128.300815,104.444444 C128.300815,106.47402 128.097563,108.455934 127.71038,110.370789 L146.296117,110.37037 C149.209378,110.37037 151.932948,111.808934 153.583769,114.211583 L153.662806,114.328591 L160.872677,125.186165 C164.082464,125.244231 166.666667,127.874684 166.666667,131.111111 C166.666667,134.38391 164.024055,137.037037 160.764228,137.037037 C157.504401,137.037037 154.861789,134.38391 154.861789,131.111111 C154.861789,130.000538 155.16608,128.96132 155.695522,128.072909 L148.75168,117.615703 C148.221987,116.818001 147.341927,116.328582 146.391395,116.297836 L146.296117,116.296296 L125.844946,116.296748 C124.924212,118.412373 123.764515,120.399186 122.400108,122.222796 L134.49124,122.222222 C137.404501,122.222222 140.12807,123.660786 141.778891,126.063435 L141.857929,126.180443 L149.0678,137.038017 C152.277587,137.096083 154.861789,139.726535 154.861789,142.962963 C154.861789,146.235761 152.219177,148.888889 148.959351,148.888889 C145.699524,148.888889 143.056912,146.235761 143.056912,142.962963 C143.056912,141.85239 143.361203,140.813172 143.890645,139.924761 L136.946803,129.467555 C136.417109,128.669853 135.537049,128.180433 134.586518,128.149688 L134.49124,128.148148 L116.49798,128.148778 C111.565195,131.869348 105.433359,134.074074 98.7886217,134.074074 C92.1438846,134.074074 86.0120479,131.869348 81.079263,128.148778 L63.2865375,128.148148 L63.1912597,128.149688 C62.2407281,128.180433 61.3606682,128.669853 60.8309745,129.467555 L60.8309745,129.467555 L53.8873098,139.925057 C54.4166428,140.813403 54.7208659,141.852514 54.7208659,142.962963 C54.7208659,146.235761 52.0782541,148.888889 48.8184272,148.888889 C45.5586003,148.888889 42.9159885,146.235761 42.9159885,142.962963 C42.9159885,139.726443 45.5003394,137.095932 48.710254,137.038012 L55.9198487,126.180443 L55.9988861,126.063435 C57.6497071,123.660786 60.3732767,122.222222 63.2865375,122.222222 L63.2865375,122.222222 L75.1771351,122.222796 C73.8127286,120.399186 72.6530313,118.412373 71.7322972,116.296748 L51.4816602,116.296296 L51.3863824,116.297836 C50.4358506,116.328582 49.5557909,116.818001 49.0260972,117.615703 L49.0260972,117.615703 L42.0824324,128.073205 C42.6117654,128.961551 42.9159885,130.000662 42.9159885,131.111111 C42.9159885,134.38391 40.2733767,137.037037 37.0135498,137.037037 C33.7537229,137.037037 31.1111111,134.38391 31.1111111,131.111111 C31.1111111,127.874591 33.695462,125.24408 36.9053766,125.18616 L44.1149714,114.328591 L44.1940089,114.211583 C45.8448297,111.808934 48.5683994,110.37037 51.4816602,110.37037 L51.4816602,110.37037 L69.8668636,110.370789 C69.4796804,108.455934 69.2764282,106.47402 69.2764282,104.444444 L51.4816602,104.444444 C48.5683994,104.444444 45.8448297,103.005881 44.1940089,100.603232 L44.1149714,100.486224 L36.9053766,89.6286545 C33.695462,89.5707348 31.1111111,86.940224 31.1111111,83.7037037 C31.1111111,80.4309052 33.7537229,77.7777778 37.0135498,77.7777778 C40.2733767,77.7777778 42.9159885,80.4309052 42.9159885,83.7037037 C42.9159885,84.8141529 42.6117654,85.853264 42.0824324,86.7416095 L49.0260972,97.1991117 C49.5557909,97.9968139 50.4358506,98.4862332 51.3863824,98.5169784 L51.4816602,98.5185185 L69.8668037,98.5183964 C70.2835519,96.4572163 70.9134153,94.4737336 71.7322972,92.592141 L63.19195,92.5925926 C60.2786893,92.5925926 57.5551196,91.1540287 55.9042987,88.7513799 L55.8252612,88.6343721 L48.6137375,77.7742812 C45.4486928,77.6659874 42.9159885,75.055869 42.9159885,71.8518519 C42.9159885,68.5790533 45.5586003,65.9259259 48.8184272,65.9259259 C52.0782541,65.9259259 54.7208659,68.5790533 54.7208659,71.8518519 C54.7208659,72.9935489 54.3992803,74.0598367 53.8420906,74.9643917 L60.7363871,85.3472599 C61.2660808,86.1449621 62.1461406,86.6343813 63.0966723,86.6651265 L63.19195,86.6666667 L75.1771351,86.6660927 C80.5614031,79.4696979 89.1335638,74.8148148 98.7886217,74.8148148 C108.443679,74.8148148 117.01584,79.4696979 122.400108,86.6660927 L134.585827,86.6666667 L134.681105,86.6651265 C135.631637,86.6343813 136.511697,86.1449621 137.04139,85.3472599 L137.04139,85.3472599 L143.935687,74.9643917 C143.378497,74.0598367 143.056912,72.9935489 143.056912,71.8518519 C143.056912,68.5790533 145.699524,65.9259259 148.959351,65.9259259 Z M98.7886217,80.7407407 C85.7493142,80.7407407 75.1788669,91.3532504 75.1788669,104.444444 C75.1788669,117.535639 85.7493142,128.148148 98.7886217,128.148148 C111.827929,128.148148 122.398376,117.535639 122.398376,104.444444 C122.398376,91.3532504 111.827929,80.7407407 98.7886217,80.7407407 Z M98.7886217,86.6666667 C108.568102,86.6666667 116.495938,94.6260489 116.495938,104.444444 C116.495938,114.26284 108.568102,122.222222 98.7886217,122.222222 C89.009141,122.222222 81.0813056,114.26284 81.0813056,104.444444 C81.0813056,94.6260489 89.009141,86.6666667 98.7886217,86.6666667 Z M119.447157,51.1111111 L119.642372,51.1126989 C126.071987,51.2173601 131.252034,56.4828219 131.252034,62.962963 C131.252034,69.50856 125.966811,74.8148148 119.447157,74.8148148 C112.927503,74.8148148 107.64228,69.50856 107.64228,62.962963 C107.64228,59.6901644 108.963586,56.7272015 111.099848,54.5824382 L111.099848,54.5824382 L119.447157,62.962963 L119.447157,51.1111111 Z M78.1300862,51.1111111 L78.1300862,62.962963 L84.6790344,53.1006408 C87.847931,55.2259104 89.9349636,58.8497404 89.9349636,62.962963 C89.9349636,69.50856 84.64974,74.8148148 78.1300862,74.8148148 C71.6104325,74.8148148 66.3252088,69.50856 66.3252088,62.962963 C66.3252088,56.4173659 71.6104325,51.1111111 78.1300862,51.1111111 Z" id="形状结合" fill="url(#linearGradient-2)"></path>
        </g>
    </g>
</svg>