<?xml version="1.0" encoding="UTF-8"?>
<svg width="200px" height="200px" viewBox="0 0 200 200" version="1.1" xmlns="http://www.w3.org/2000/svg" xmlns:xlink="http://www.w3.org/1999/xlink">
    <title>WCRING@svg</title>
    <defs>
        <linearGradient x1="100%" y1="100%" x2="0%" y2="1.11022302e-14%" id="linearGradient-1">
            <stop stop-color="#24000B" offset="0%"></stop>
            <stop stop-color="#080089" offset="100%"></stop>
        </linearGradient>
        <linearGradient x1="28.3342361%" y1="5.92008829%" x2="82.3929787%" y2="89.1401291%" id="linearGradient-2">
            <stop stop-color="#D1359A" offset="0%"></stop>
            <stop stop-color="#6323CA" offset="100%"></stop>
        </linearGradient>
        <linearGradient x1="13.0729437%" y1="3.49161625%" x2="77.481246%" y2="94.6132183%" id="linearGradient-3">
            <stop stop-color="#6B25C7" offset="0%"></stop>
            <stop stop-color="#CC349C" offset="100%"></stop>
        </linearGradient>
        <linearGradient x1="35.9155703%" y1="25.6832409%" x2="71.4870185%" y2="50%" id="linearGradient-4">
            <stop stop-color="#6330DD" offset="0%"></stop>
            <stop stop-color="#7C30DD" offset="28.5552154%"></stop>
            <stop stop-color="#FE3876" offset="100%"></stop>
        </linearGradient>
    </defs>
    <g id="WCRING" stroke="none" stroke-width="1" fill="none" fill-rule="evenodd">
        <g id="token-icon-wcring" transform="translate(10.000000, 10.000000)">
            <g id="椭圆形">
                <circle stroke="url(#linearGradient-2)" stroke-width="22.406639" fill="url(#linearGradient-1)" cx="90" cy="90" r="84.3983402"></circle>
                <circle stroke="url(#linearGradient-3)" stroke-width="11.2033195" cx="90" cy="90" r="90"></circle>
                <circle stroke-opacity="0.113680753" stroke="#000000" stroke-width="22.406639" cx="90" cy="90" r="84.3983402"></circle>
            </g>
            <g id="cRING" transform="translate(34.730290, 34.730290)" fill="url(#linearGradient-4)" fill-rule="nonzero">
                <path d="M53.7701971,25.1316488 C35.1615652,25.0550979 18.7102916,34.419356 8.75313919,48.6354116 C4.72102992,54.3903189 1.75343469,60.9554399 0.138783036,68.0393123 C0.0467848964,66.7391133 1.06139164e-14,65.426349 1.06139164e-14,64.1025987 C1.06139164e-14,33.9008837 24.353288,9.41755593 54.3945077,9.41755593 C87.0341109,9.41755593 109.98775,32.0716695 109.98775,60.0169348 C109.98775,81.7752441 96.0726809,100.325925 76.546384,107.473495 C71.8007979,109.100889 66.9520169,109.98775 61.8971983,109.98775 C38.4166755,109.98775 18.1315026,90.8513557 18.1315026,67.2454174 C18.1315026,63.1899039 18.6933207,59.2663113 20.9934282,55.5490114 C20.1302941,57.8419048 20.0071753,59.5435285 20.0071753,61.2740623 C20.0071753,80.8878198 36.4480162,96.1593481 55.9575683,96.1593481 C75.4671204,96.1593481 91.2827371,80.2592561 91.2827371,60.6454986 C91.2827371,44.0352502 79.9400285,30.0883839 64.6168324,26.2064432 C61.4933429,25.5785471 58.3000222,25.1465342 53.7701971,25.1316488 Z" id="Combined-Shape-Copy-34" transform="translate(54.993875, 59.702653) rotate(180.000000) translate(-54.993875, -59.702653) "></path>
                <path d="M53.7701971,15.7140928 C35.1615652,15.637542 18.7102916,25.0017999 8.75313919,39.2178559 C4.72102992,44.9727629 1.75343469,51.5378842 0.138783036,58.6217562 C0.0467848964,57.3215576 0,56.0087929 0,54.685043 C0,24.4833277 24.353288,0 54.3945077,0 C87.0341109,0 109.98775,22.6541135 109.98775,50.5993788 C109.98775,72.357688 96.0726809,90.9083689 76.546384,98.0559392 C71.8007979,99.6833327 66.9520169,100.570194 61.8971983,100.570194 C38.4166755,100.570194 18.1315026,81.4337996 18.1315026,57.8278613 C18.1315026,53.7723482 18.6933207,49.8487552 20.9934282,46.1314554 C20.1302941,48.4243488 20.0071753,50.1259728 20.0071753,51.8565062 C20.0071753,71.4702637 36.4480162,86.741792 55.9575683,86.741792 C75.4671204,86.741792 91.2827371,70.8417004 91.2827371,51.2279425 C91.2827371,34.6176943 79.9400285,20.6708279 64.6168324,16.7888873 C61.4933429,16.160991 58.3000222,15.7289782 53.7701971,15.7140928 Z" id="Combined-Shape-Copy-41"></path>
            </g>
        </g>
    </g>
</svg>