<svg width="28" height="28" viewBox="0 0 28 28" fill="none" xmlns="http://www.w3.org/2000/svg">
<path fill-rule="evenodd" clip-rule="evenodd" d="M0.5 14C0.5 21.4558 6.54416 27.5 14 27.5C21.4558 27.5 27.5 21.4558 27.5 14C27.5 6.54416 21.4558 0.5 14 0.5C6.54416 0.5 0.5 6.54416 0.5 14ZM19.5559 14.4116C19.5989 14.3044 19.6641 14.0768 19.5944 13.7962C19.5189 13.4927 19.3992 13.371 19.3199 13.3224L19.2497 13.2921L15.747 13.2903L15.7471 6.125H12.3957L12.3948 13.2903L8.66286 13.2903L8.65012 13.2956L8.56913 13.3529C8.49978 13.4186 8.41213 13.5484 8.3807 13.7962C8.3473 14.0682 8.46945 14.245 8.51948 14.3174C8.52262 14.322 8.52547 14.3261 8.52799 14.3298L13.1934 21.2302L13.2522 21.3309C13.3696 21.5123 13.6628 21.875 14.1286 21.875C14.5838 21.875 14.8373 21.6176 14.9357 21.4888L19.5252 14.478L19.5559 14.4116Z" fill="white"/>
</svg>
