<svg width="28" height="28" viewBox="0 0 28 28" fill="none" xmlns="http://www.w3.org/2000/svg">
<path fill-rule="evenodd" clip-rule="evenodd" d="M27.5 14C27.5 6.54416 21.4558 0.5 14 0.5C6.54416 0.5 0.5 6.54416 0.5 14C0.5 21.4558 6.54416 27.5 14 27.5C21.4558 27.5 27.5 21.4558 27.5 14ZM6.52042 17.3514C7.04763 16.8828 7.9024 16.8828 8.42961 17.3514L10.175 18.9029L10.175 6.2C10.175 5.53726 10.7794 5 11.525 5C12.2706 5 12.875 5.53726 12.875 6.2L12.875 21.8C12.875 22.2853 12.5461 22.7229 12.0416 22.9086C11.5372 23.0944 10.9565 22.9917 10.5704 22.6485L6.52042 19.0485C5.99322 18.5799 5.99322 17.8201 6.52042 17.3514ZM21.4796 10.6486C20.9524 11.1172 20.0976 11.1172 19.5704 10.6486L17.825 9.09708V21.8C17.825 22.4627 17.2206 23 16.475 23C15.7294 23 15.125 22.4627 15.125 21.8L15.125 6.20003C15.125 5.71468 15.4539 5.27712 15.9584 5.09138C16.4629 4.90564 17.0435 5.00831 17.4296 5.35151L21.4796 8.9515C22.0068 9.42013 22.0068 10.1799 21.4796 10.6486Z" fill="white"/>
</svg>
