<?xml version="1.0" encoding="UTF-8"?>
<svg width="1638px" height="689px" viewBox="0 0 1638 689" version="1.1" xmlns="http://www.w3.org/2000/svg" xmlns:xlink="http://www.w3.org/1999/xlink">
    <title>Helix</title>
    <g id="Helix" stroke="none" stroke-width="1" fill="none" fill-rule="evenodd">
        <path d="M504,197 L504,345 L248,493 L248,345 L504,197 Z M760,197 L760,345 L504,493 L504,345 L760,197 Z" id="形状结合" fill="#93DAFC"></path>
        <path d="M965.104,268 L934.298,268 L934.298,334.241625 L871.631,334.241625 L871.631,268 L840.825,268 L840.825,427 L871.631,427 L871.631,362.515625 L934.298,362.515625 L934.298,427 L965.104,427 L965.104,268 Z M1097.612,377.369 C1097.612,377.369 1098.034,373.36 1098.034,368.507 C1098.034,335.802 1075.879,310.904 1043.174,310.904 C1010.469,310.904 987.681,335.802 987.681,368.507 C987.681,402.478 1010.68,426.532 1043.385,426.532 C1068.916,426.532 1089.172,411.129 1095.713,388.763 L1065.54,388.763 C1061.953,396.781 1053.302,400.79 1044.229,400.79 C1029.248,400.79 1019.542,392.561 1017.432,377.369 L1097.612,377.369 Z M1042.963,334.958 C1056.889,334.958 1065.962,343.398 1068.072,355.847 L1017.854,355.847 C1020.386,343.187 1029.248,334.958 1042.963,334.958 Z M1148.252,427 L1148.252,268 L1118.29,268 L1118.29,427 L1148.252,427 Z M1190.663,304.088 C1201.213,304.088 1208.809,296.703 1208.809,286.153 C1208.809,275.603 1201.213,268.007 1190.663,268.007 C1180.113,268.007 1172.517,275.603 1172.517,286.153 C1172.517,296.703 1180.113,304.088 1190.663,304.088 Z M1175.682,427 L1205.644,427 L1205.644,316.436 L1175.682,316.436 L1175.682,427 Z M1334.354,316.436 L1298.273,316.436 L1276.329,348.086 L1254.385,316.436 L1218.304,316.436 L1259.449,370.874 L1217.038,427 L1253.119,427 L1276.329,393.451 L1299.539,427 L1335.62,427 L1293.209,370.874 L1334.354,316.436 Z" id="形状结合" fill="#00B2FF" fill-rule="nonzero"></path>
        <path d="M248,197 L504,345 L504,493 L248,345 L248,197 Z M504,197 L760,345 L760,493 L504,345 L504,197 Z" id="形状结合" fill="#00B2FF"></path>
    </g>
</svg>