<svg width="132" height="32" viewBox="0 0 132 32" fill="none" xmlns="http://www.w3.org/2000/svg">
<rect width="132" height="32" rx="16" fill="#000421"/>
<path opacity="0.6" fill-rule="evenodd" clip-rule="evenodd" d="M48.0056 6.72754V16.0003L32 25.273V16.0003L48.0056 6.72754ZM64.0112 6.72754V16.0003L48.0056 25.273V16.0003L64.0112 6.72754Z" fill="#0085FF"/>
<path d="M76.8346 11.1758H74.9086V15.3261H70.9905V11.1758H69.0645V21.1377H70.9905V17.0975H74.9086V21.1377H76.8346V11.1758ZM85.1193 18.0281C85.1193 18.0281 85.1457 17.777 85.1457 17.4729C85.1457 15.4238 83.7605 13.8639 81.7157 13.8639C79.6709 13.8639 78.2462 15.4238 78.2462 17.4729C78.2462 19.6013 79.6841 21.1084 81.7289 21.1084C83.3251 21.1084 84.5916 20.1433 85.0005 18.742H83.1141C82.8898 19.2444 82.3489 19.4955 81.7817 19.4955C80.845 19.4955 80.2382 18.98 80.1063 18.0281H85.1193ZM81.7025 15.3709C82.5732 15.3709 83.1404 15.8997 83.2724 16.6797H80.1326C80.2909 15.8865 80.845 15.3709 81.7025 15.3709ZM88.2854 21.1377V11.1758H86.4121V21.1377H88.2854ZM90.937 13.4368C91.5966 13.4368 92.0715 12.9741 92.0715 12.3131C92.0715 11.6521 91.5966 11.1762 90.937 11.1762C90.2774 11.1762 89.8025 11.6521 89.8025 12.3131C89.8025 12.9741 90.2774 13.4368 90.937 13.4368ZM90.0004 21.1377H91.8736V14.2105H90.0004V21.1377ZM99.9208 14.2105H97.665L96.293 16.1935L94.921 14.2105H92.6652L95.2376 17.6212L92.586 21.1377H94.8419L96.293 19.0357L97.7441 21.1377H100L97.3484 17.6212L99.9208 14.2105Z" fill="#0085FF"/>
<path fill-rule="evenodd" clip-rule="evenodd" d="M32 6.72754L48.0056 16.0003V25.273L32 16.0003V6.72754ZM48.0056 6.72754L64.0112 16.0003V25.273L48.0056 16.0003V6.72754Z" fill="#0085FF"/>
</svg>
