<svg width="23" height="18" viewBox="0 0 23 18" fill="none" xmlns="http://www.w3.org/2000/svg">
<path d="M15.6384 0.523039L15.0564 0.591277C14.6998 0.659515 14.3431 0.761872 14.0052 0.881288V0.881288C12.6703 1.41161 11.6844 2.47794 11.3396 3.76433C11.1519 4.42965 11.1519 5.12909 11.3396 5.77735C10.6263 5.77735 9.913 5.69205 9.23722 5.52146V5.52146C7.12969 5.09397 5.16178 4.22339 3.49153 2.9796C2.9778 2.61346 2.51127 2.1957 2.10086 1.73426V1.73426C1.94251 1.59241 1.79805 1.43829 1.66911 1.27366L1.66911 1.27366C1.44947 1.62242 1.27918 1.99498 1.16228 2.38252L1.16228 2.38252C0.807164 3.76256 1.19766 5.21377 2.21349 6.28914C2.45753 6.56209 2.83296 6.73269 3.07699 6.97152C2.86299 7.00555 2.6429 6.9879 2.43875 6.92034H2.43875C2.09763 6.86914 1.76391 6.7833 1.44386 6.66445L0.93702 6.49385V6.49385C0.878884 7.99772 1.72821 9.4106 3.15208 10.1787C3.6026 10.4858 4.12821 10.6734 4.69136 10.7417C4.39101 10.9805 3.05822 10.8781 2.58893 10.827C3.05822 12.1235 4.16575 13.13 5.57519 13.5735C6.02571 13.7271 6.495 13.7953 6.96429 13.7953C6.57442 14.0923 6.14569 14.3444 5.68782 14.5459C4.80546 14.9835 3.85655 15.2997 2.87207 15.4842C2.44032 15.5695 1.98979 15.5524 1.50173 15.6207H1.50173C1.00062 15.6548 0.49689 15.6376 0 15.5695L0.412978 15.7913C0.844727 16.0301 1.27648 16.2348 1.74577 16.4054C2.64681 16.7466 3.56662 17.0195 4.50521 17.2243C6.72026 17.6507 9.03073 17.5825 11.2082 17.0195C16.128 15.6207 19.2441 12.3452 20.4283 7.51742C20.616 6.61327 20.6911 5.675 20.6535 4.75379L21.4044 4.19083C22.0284 3.71209 22.5667 3.14808 23 2.519C22.1526 2.85932 21.2543 3.08353 20.3344 3.18432C20.5221 3.09902 20.6911 2.97961 20.86 2.84313C21.5734 2.31429 22.099 1.61485 22.3805 0.830118L21.7986 1.12013C21.0367 1.48839 20.2115 1.73643 19.3583 1.85368C18.403 0.932184 17.0499 0.439292 15.6587 0.50599V0.52305H15.6384L15.6384 0.523039Z" fill="white"/>
</svg>
