<svg width="14" height="14" viewBox="0 0 14 14" fill="none" xmlns="http://www.w3.org/2000/svg">
<path fill-rule="evenodd" clip-rule="evenodd" d="M3.89696 2.875H12.1552C12.7253 2.875 13.1875 3.3367 13.1875 3.90625V12.1563C13.1875 12.7258 12.7253 13.1875 12.1552 13.1875H3.89696C3.32685 13.1875 2.86468 12.7258 2.86468 12.1563V3.90625C2.86468 3.3367 3.32685 2.875 3.89696 2.875V2.875ZM4.38626 11.7262H11.6556V4.39094H4.38626V11.7262ZM1.84478 1.84374V10.0937C1.27467 10.0937 0.8125 9.63204 0.8125 9.06249V1.84375V1.84375C0.8125 1.27421 1.27467 0.8125 1.84478 0.8125H9.07075C9.64086 0.8125 10.103 1.27421 10.103 1.84375H1.84477L1.84478 1.84374Z" fill="white"/>
</svg>
