<svg width="22" height="23" viewBox="0 0 22 23" fill="none" xmlns="http://www.w3.org/2000/svg">
<path d="M11.0012 0.500001C4.92303 0.497476 0 5.55187 0 11.7903C0 16.7235 3.07966 20.917 7.36856 22.4571C7.94615 22.606 7.85767 22.1844 7.85767 21.8966V19.94C4.5224 20.3414 4.38722 18.0742 4.16356 17.6955C3.71132 16.9028 2.64216 16.7008 2.96168 16.3221C3.72115 15.9207 4.49536 16.4231 5.39247 17.7839C6.04134 18.7711 7.30712 18.6044 7.94861 18.4403C8.08871 17.847 8.38856 17.3168 8.80148 16.9053C5.34577 16.2691 3.90549 14.1029 3.90549 11.5278C3.90549 10.2781 4.30611 9.12933 5.09262 8.20278C4.59122 6.67535 5.13931 5.36757 5.21305 5.17317C6.64105 5.04189 8.12557 6.22343 8.24109 6.31685C9.05217 6.09215 9.97877 5.97349 11.016 5.97349C12.0581 5.97349 12.9872 6.0972 13.8056 6.32442C14.0833 6.1073 15.4597 5.09238 16.787 5.21609C16.8582 5.41049 17.394 6.68797 16.9221 8.1952C17.7185 9.12428 18.124 10.2831 18.124 11.5353C18.124 14.1156 16.6739 16.2843 13.2084 16.9104C13.7859 17.4961 14.1448 18.309 14.1448 19.2078V22.0481C14.1645 22.2753 14.1448 22.5 14.5135 22.5C18.8663 20.9928 22 16.769 22 11.7929C22 5.55187 17.0745 0.500001 11.0012 0.500001Z" fill="#808390"/>
</svg>
