<?xml version="1.0" encoding="UTF-8"?>
<svg width="136px" height="26px" viewBox="0 0 136 26" version="1.1" xmlns="http://www.w3.org/2000/svg" xmlns:xlink="http://www.w3.org/1999/xlink">
    <title>编组</title>
    <defs>
        <linearGradient x1="100%" y1="51.8274221%" x2="0%" y2="48.1725779%" id="linearGradient-1">
            <stop stop-color="#FE3876" offset="0%"></stop>
            <stop stop-color="#7C30DD" offset="71.4447846%"></stop>
            <stop stop-color="#3A30DD" offset="100%"></stop>
        </linearGradient>
    </defs>
    <g id="Asset-Components" stroke="none" stroke-width="1" fill="none" fill-rule="evenodd">
        <g id="编组">
            <rect id="矩形" fill="url(#linearGradient-1)" x="0" y="0" width="136" height="26" rx="10"></rect>
            <path d="M18.8664628,6 C19.8167473,6 20.587156,6.75486641 20.587156,7.68607306 C20.587156,8.41514485 20.1148087,9.03619939 19.4536468,9.27140867 L19.453739,18.0056538 C20.6845988,17.9524073 21.8291647,17.7317209 22.8460839,17.3659371 L22.8460474,10.6698105 C22.1848855,10.4346012 21.7125382,9.81354667 21.7125382,9.08447489 C21.7125382,8.15326823 22.4829469,7.39840183 23.4332314,7.39840183 C24.3835159,7.39840183 25.1539246,8.15326823 25.1539246,9.08447489 C25.1539246,9.81354667 24.6815773,10.4346012 24.0204154,10.6698105 L24.0204705,16.8492719 C25.1511101,16.2503315 26.056907,15.4396979 26.6575648,14.4607542 C26.2500206,14.1008689 25.9938838,13.5797349 25.9938838,13 C25.9938838,11.9142985 26.8920472,11.0342466 28,11.0342466 C28.0909815,11.0342466 28.1805484,11.0401809 28.2683195,11.0516762 C29.7962654,8.4484154 33.0725099,6.87168145 36.9814857,6.83182435 L37.1335372,6.83105023 L43.412844,6.83105023 C43.7371213,6.83105023 44,7.08863982 44,7.40639269 C44,7.71279725 43.7555631,7.96325916 43.4473439,7.98075848 L43.412844,7.98173516 L42.2874618,7.98173516 L42.2875041,16.7285828 C42.9486737,16.9637745 43.420999,17.584795 43.420999,18.3139269 C43.420999,19.2450568 42.6505545,20 41.7003058,20 C40.7500571,20 39.9796126,19.2450568 39.9796126,18.3139269 C39.9796126,17.5847227 40.4520316,16.9636514 41.1133042,16.7285129 L41.1131498,7.98173516 L37.7205627,7.98173516 L37.7207355,16.7285828 C38.3819051,16.9637745 38.8542304,17.584795 38.8542304,18.3139269 C38.8542304,19.2450568 38.0837859,20 37.1335372,20 C36.1832885,20 35.412844,19.2450568 35.412844,18.3139269 C35.412844,17.584795 35.8851694,16.9637745 36.5463389,16.7285828 L36.546261,7.9943462 C35.3154012,8.04759271 34.1708353,8.26827909 33.1539161,8.63406292 L33.1539669,15.330181 C33.8151365,15.5653727 34.2874618,16.1863932 34.2874618,16.9155251 C34.2874618,17.846655 33.5170173,18.6015982 32.5667686,18.6015982 C31.6165199,18.6015982 30.8460754,17.846655 30.8460754,16.9155251 C30.8460754,16.1863932 31.3184007,15.5653727 31.9795703,15.330181 L31.9795295,9.15072808 C30.8488899,9.74966854 29.943093,10.5603021 29.3424352,11.5392458 C29.7499898,11.8990932 30.0061162,12.4202244 30.0061162,13 C30.0061162,14.0856253 29.1079164,14.9657534 28,14.9657534 C27.9090215,14.9657534 27.8194571,14.9598186 27.7316881,14.9483224 C26.2037544,17.551575 22.927502,19.1283184 19.0185143,19.1681756 L18.8664628,19.1689498 L12.587156,19.1689498 C12.2628787,19.1689498 12,18.9113602 12,18.5936073 C12,18.2872028 12.2444369,18.0367408 12.5526561,18.0192415 L12.587156,18.0182648 L13.7125382,18.0182009 L13.71254,9.27141928 C13.0513625,9.03621805 12.579001,8.4151558 12.579001,7.68607306 C12.579001,6.75486641 13.3494097,6 14.2996942,6 C15.2499787,6 16.0203874,6.75486641 16.0203874,7.68607306 C16.0203874,8.41508382 15.5481192,9.03609542 14.8870442,9.2713496 L14.8868502,18.0182009 L18.2792416,18.0182009 L18.2792788,9.27140867 C17.6181169,9.03619939 17.1457696,8.41514485 17.1457696,7.68607306 C17.1457696,6.75486641 17.9161783,6 18.8664628,6 Z" id="路径" fill="#FFFFFF"></path>
            <path d="M54.816,19 L57.424,9.48 L57.472,9.48 L60.064,19 L61.52,19 L64.8,7.576 L63.328,7.576 L60.816,17.16 L60.752,17.16 L58.16,7.576 L56.736,7.576 L54.128,17.16 L54.064,17.16 L51.552,7.576 L50.08,7.576 L53.36,19 L54.816,19 Z M69.568,19.224 C70.8,19.224 71.792,18.792 72.544,17.928 C73.232,17.128 73.584,16.104 73.584,14.872 C73.584,13.624 73.232,12.6 72.528,11.784 C71.792,10.92 70.8,10.504 69.568,10.504 C68.32,10.504 67.344,10.92 66.608,11.784 C65.904,12.6 65.552,13.624 65.552,14.872 C65.552,16.104 65.904,17.128 66.608,17.928 C67.344,18.792 68.32,19.224 69.568,19.224 Z M69.568,18.152 C68.688,18.152 68,17.816 67.52,17.144 C67.072,16.536 66.864,15.784 66.864,14.872 C66.864,13.944 67.072,13.192 67.52,12.584 C68,11.912 68.688,11.576 69.568,11.576 C70.432,11.576 71.12,11.912 71.632,12.584 C72.064,13.192 72.288,13.944 72.288,14.872 C72.288,15.768 72.064,16.536 71.632,17.144 C71.12,17.816 70.432,18.152 69.568,18.152 Z M76.512,19 L76.512,14.616 C76.512,13.848 76.72,13.192 77.168,12.648 C77.6,12.072 78.144,11.8 78.784,11.8 C79.184,11.8 79.6,11.848 80.016,11.976 L80.016,10.696 C79.712,10.568 79.328,10.504 78.88,10.504 C78.304,10.504 77.808,10.68 77.376,11.032 C77.024,11.304 76.736,11.688 76.512,12.168 L76.512,10.728 L75.248,10.728 L75.248,19 L76.512,19 Z M82.368,19 L82.368,13.96 C82.368,13.304 82.56,12.744 82.944,12.296 C83.328,11.816 83.808,11.592 84.4,11.592 C85.664,11.592 86.304,12.312 86.304,13.784 L86.304,19 L87.584,19 L87.584,13.816 C87.584,13.144 87.76,12.616 88.144,12.2 C88.496,11.784 88.96,11.592 89.504,11.592 C90.208,11.592 90.72,11.768 91.04,12.152 C91.344,12.504 91.504,13.048 91.504,13.784 L91.504,19 L92.784,19 L92.784,13.576 C92.784,12.632 92.512,11.88 92,11.32 C91.456,10.776 90.768,10.504 89.904,10.504 C89.328,10.504 88.848,10.632 88.448,10.888 C88,11.128 87.616,11.528 87.296,12.072 C86.832,11.016 85.968,10.504 84.704,10.504 C83.776,10.504 82.992,10.936 82.368,11.832 L82.368,10.728 L81.088,10.728 L81.088,19 L82.368,19 Z M96.048,19 L96.048,14.28 C96.048,13.512 96.256,12.856 96.688,12.344 C97.104,11.832 97.632,11.576 98.272,11.576 C98.96,11.576 99.488,11.784 99.872,12.2 C100.224,12.616 100.416,13.208 100.416,13.976 L100.416,19 L101.696,19 L101.696,13.784 C101.696,12.728 101.44,11.912 100.928,11.352 C100.416,10.776 99.664,10.504 98.704,10.504 C98.144,10.504 97.648,10.632 97.2,10.888 C96.72,11.16 96.336,11.56 96.048,12.088 L96.048,7.352 L94.768,7.352 L94.768,19 L96.048,19 Z M107.36,19.224 C108.592,19.224 109.584,18.792 110.336,17.928 C111.024,17.128 111.376,16.104 111.376,14.872 C111.376,13.624 111.024,12.6 110.32,11.784 C109.584,10.92 108.592,10.504 107.36,10.504 C106.112,10.504 105.136,10.92 104.4,11.784 C103.696,12.6 103.344,13.624 103.344,14.872 C103.344,16.104 103.696,17.128 104.4,17.928 C105.136,18.792 106.112,19.224 107.36,19.224 Z M107.36,18.152 C106.48,18.152 105.792,17.816 105.312,17.144 C104.864,16.536 104.656,15.784 104.656,14.872 C104.656,13.944 104.864,13.192 105.312,12.584 C105.792,11.912 106.48,11.576 107.36,11.576 C108.224,11.576 108.912,11.912 109.424,12.584 C109.856,13.192 110.08,13.944 110.08,14.872 C110.08,15.768 109.856,16.536 109.424,17.144 C108.912,17.816 108.224,18.152 107.36,18.152 Z M114.56,19 L114.56,7.352 L113.296,7.352 L113.296,19 L114.56,19 Z M120.256,19.224 C121.328,19.224 122.208,18.904 122.896,18.296 C123.456,17.784 123.824,17.144 124.016,16.344 L122.736,16.344 C122.528,16.92 122.256,17.352 121.904,17.64 C121.488,17.976 120.928,18.152 120.256,18.152 C119.472,18.152 118.848,17.896 118.4,17.384 C117.952,16.872 117.712,16.152 117.648,15.224 L124.176,15.224 C124.144,13.784 123.824,12.648 123.216,11.848 C122.544,10.952 121.536,10.504 120.208,10.504 C119.008,10.504 118.064,10.936 117.36,11.8 C116.656,12.616 116.32,13.64 116.32,14.856 C116.32,16.2 116.672,17.256 117.408,18.056 C118.112,18.824 119.072,19.224 120.256,19.224 Z M122.848,14.232 L117.68,14.232 C117.76,13.416 118.016,12.776 118.464,12.296 C118.912,11.816 119.504,11.576 120.24,11.576 C121.808,11.576 122.688,12.456 122.848,14.232 Z" id="Wormhole" fill="#FFFFFF" fill-rule="nonzero"></path>
        </g>
    </g>
</svg>