<?xml version="1.0" encoding="UTF-8"?>
<svg width="178px" height="26px" viewBox="0 0 178 26" version="1.1" xmlns="http://www.w3.org/2000/svg" xmlns:xlink="http://www.w3.org/1999/xlink">
    <title>编组 6</title>
    <defs>
        <linearGradient x1="100%" y1="51.0667845%" x2="0%" y2="48.9332155%" id="linearGradient-1">
            <stop stop-color="#FE3876" offset="0%"></stop>
            <stop stop-color="#7C30DD" offset="71.4447846%"></stop>
            <stop stop-color="#3A30DD" offset="100%"></stop>
        </linearGradient>
    </defs>
    <g id="Wormhole" stroke="none" stroke-width="1" fill="none" fill-rule="evenodd">
        <g id="编组-6">
            <rect id="矩形" fill="url(#linearGradient-1)" x="0" y="0" width="178" height="26" rx="10"></rect>
            <rect id="矩形" fill="#FFFFFF" x="134.5" y="4" width="40" height="18" rx="7"></rect>
            <path d="M144.98,18.168 C145.428,18.168 145.834,18.0793333 146.198,17.902 C146.562,17.7246667 146.872333,17.4726667 147.129,17.146 C147.385667,16.8193333 147.581667,16.4226667 147.717,15.956 C147.852333,15.4893333 147.92,14.9666667 147.92,14.388 C147.92,13.8093333 147.852333,13.2866667 147.717,12.82 C147.581667,12.3533333 147.385667,11.9566667 147.129,11.63 C146.872333,11.3033333 146.562,11.0513333 146.198,10.874 C145.834,10.6966667 145.428,10.608 144.98,10.608 C144.476,10.608 144.044333,10.7176667 143.685,10.937 C143.325667,11.1563333 143.052667,11.4946667 142.866,11.952 L142.866,11.952 L142.81,11.952 L142.81,7.64 L141.69,7.64 L141.69,18 L142.81,18 L142.81,16.824 L142.866,16.824 C143.295333,17.72 144,18.168 144.98,18.168 Z M144.672,17.16 C144.42,17.16 144.179667,17.1273333 143.951,17.062 C143.722333,16.9966667 143.524,16.901 143.356,16.775 C143.188,16.649 143.055,16.495 142.957,16.313 C142.859,16.131 142.81,15.9233333 142.81,15.69 L142.81,15.69 L142.81,13.002 C142.81,12.806 142.859,12.6216667 142.957,12.449 C143.055,12.2763333 143.188,12.1293333 143.356,12.008 C143.524,11.8866667 143.722333,11.791 143.951,11.721 C144.179667,11.651 144.42,11.616 144.672,11.616 C145.306667,11.616 145.806,11.8143333 146.17,12.211 C146.534,12.6076667 146.716,13.128 146.716,13.772 L146.716,13.772 L146.716,15.004 C146.716,15.648 146.534,16.1683333 146.17,16.565 C145.806,16.9616667 145.306667,17.16 144.672,17.16 Z M152.526,18.168 C153.207333,18.168 153.795333,18.0163333 154.29,17.713 C154.784667,17.4096667 155.148667,17.0106667 155.382,16.516 L155.382,16.516 L154.584,15.942 C154.397333,16.3433333 154.133667,16.6513333 153.793,16.866 C153.452333,17.0806667 153.053333,17.188 152.596,17.188 C152.26,17.188 151.959,17.132 151.693,17.02 C151.427,16.908 151.203,16.754 151.021,16.558 C150.839,16.362 150.699,16.131 150.601,15.865 C150.503,15.599 150.454,15.312 150.454,15.004 L150.454,15.004 L150.454,14.668 L155.648,14.668 L155.648,14.136 C155.648,13.6226667 155.575667,13.1513333 155.431,12.722 C155.286333,12.2926667 155.078667,11.9216667 154.808,11.609 C154.537333,11.2963333 154.210667,11.0513333 153.828,10.874 C153.445333,10.6966667 153.011333,10.608 152.526,10.608 C152.031333,10.608 151.585667,10.6966667 151.189,10.874 C150.792333,11.0513333 150.451667,11.3056667 150.167,11.637 C149.882333,11.9683333 149.663,12.3673333 149.509,12.834 C149.355,13.3006667 149.278,13.8186667 149.278,14.388 C149.278,14.9666667 149.355,15.487 149.509,15.949 C149.663,16.411 149.882333,16.8076667 150.167,17.139 C150.451667,17.4703333 150.792333,17.7246667 151.189,17.902 C151.585667,18.0793333 152.031333,18.168 152.526,18.168 Z M154.444,13.828 L150.454,13.828 L150.454,13.73 C150.454,13.4126667 150.505333,13.121 150.608,12.855 C150.710667,12.589 150.853,12.358 151.035,12.162 C151.217,11.966 151.434,11.8143333 151.686,11.707 C151.938,11.5996667 152.218,11.546 152.526,11.546 C153.104667,11.546 153.569,11.7396667 153.919,12.127 C154.269,12.5143333 154.444,13.03 154.444,13.674 L154.444,13.674 L154.444,13.828 Z M160.492,18 L160.492,17.02 L159.022,17.02 L159.022,11.756 L160.604,11.756 L160.604,10.776 L159.022,10.776 L159.022,8.774 L158.014,8.774 L158.014,10.118 C158.014,10.3606667 157.969667,10.531 157.881,10.629 C157.792333,10.727 157.626667,10.776 157.384,10.776 L157.384,10.776 L156.712,10.776 L156.712,11.756 L157.902,11.756 L157.902,16.81 C157.902,17.1646667 158.002333,17.4516667 158.203,17.671 C158.403667,17.8903333 158.7,18 159.092,18 L159.092,18 L160.492,18 Z M164.258,18.168 C164.762,18.168 165.196,18.056 165.56,17.832 C165.924,17.608 166.185333,17.272 166.344,16.824 L166.344,16.824 L166.414,16.824 C166.460667,17.16 166.575,17.44 166.757,17.664 C166.939,17.888 167.24,18 167.66,18 L167.66,18 L168.29,18 L168.29,17.02 L167.464,17.02 L167.464,13.044 C167.464,12.2786667 167.221333,11.6813333 166.736,11.252 C166.250667,10.8226667 165.569333,10.608 164.692,10.608 C164.038667,10.608 163.497333,10.7456667 163.068,11.021 C162.638667,11.2963333 162.326,11.63 162.13,12.022 L162.13,12.022 L162.802,12.652 C162.998,12.3253333 163.243,12.064 163.537,11.868 C163.831,11.672 164.197333,11.574 164.636,11.574 C165.214667,11.574 165.644,11.7093333 165.924,11.98 C166.204,12.2506667 166.344,12.6426667 166.344,13.156 L166.344,13.156 L166.344,13.87 L164.916,13.87 C163.861333,13.87 163.084333,14.052 162.585,14.416 C162.085667,14.78 161.836,15.3026667 161.836,15.984 C161.836,16.656 162.048333,17.188 162.473,17.58 C162.897667,17.972 163.492667,18.168 164.258,18.168 Z M164.44,17.216 C164.001333,17.216 163.653667,17.118 163.397,16.922 C163.140333,16.726 163.012,16.4506667 163.012,16.096 L163.012,16.096 L163.012,15.802 C163.012,15.4473333 163.159,15.1766667 163.453,14.99 C163.747,14.8033333 164.216,14.71 164.86,14.71 L164.86,14.71 L166.344,14.71 L166.344,15.9 C166.344,16.0866667 166.297333,16.2593333 166.204,16.418 C166.110667,16.5766667 165.98,16.7166667 165.812,16.838 C165.644,16.9593333 165.443333,17.0526667 165.21,17.118 C164.976667,17.1833333 164.72,17.216 164.44,17.216 Z" id="beta" fill="#DC3692" fill-rule="nonzero"></path>
            <path d="M18.8664628,6 C19.8167473,6 20.587156,6.75486641 20.587156,7.68607306 C20.587156,8.41514485 20.1148087,9.03619939 19.4536468,9.27140867 L19.453739,18.0056538 C20.6845988,17.9524073 21.8291647,17.7317209 22.8460839,17.3659371 L22.8460474,10.6698105 C22.1848855,10.4346012 21.7125382,9.81354667 21.7125382,9.08447489 C21.7125382,8.15326823 22.4829469,7.39840183 23.4332314,7.39840183 C24.3835159,7.39840183 25.1539246,8.15326823 25.1539246,9.08447489 C25.1539246,9.81354667 24.6815773,10.4346012 24.0204154,10.6698105 L24.0204705,16.8492719 C25.1511101,16.2503315 26.056907,15.4396979 26.6575648,14.4607542 C26.2500206,14.1008689 25.9938838,13.5797349 25.9938838,13 C25.9938838,11.9142985 26.8920472,11.0342466 28,11.0342466 C28.0909815,11.0342466 28.1805484,11.0401809 28.2683195,11.0516762 C29.7962654,8.4484154 33.0725099,6.87168145 36.9814857,6.83182435 L37.1335372,6.83105023 L43.412844,6.83105023 C43.7371213,6.83105023 44,7.08863982 44,7.40639269 C44,7.71279725 43.7555631,7.96325916 43.4473439,7.98075848 L43.412844,7.98173516 L42.2874618,7.98173516 L42.2875041,16.7285828 C42.9486737,16.9637745 43.420999,17.584795 43.420999,18.3139269 C43.420999,19.2450568 42.6505545,20 41.7003058,20 C40.7500571,20 39.9796126,19.2450568 39.9796126,18.3139269 C39.9796126,17.5847227 40.4520316,16.9636514 41.1133042,16.7285129 L41.1131498,7.98173516 L37.7205627,7.98173516 L37.7207355,16.7285828 C38.3819051,16.9637745 38.8542304,17.584795 38.8542304,18.3139269 C38.8542304,19.2450568 38.0837859,20 37.1335372,20 C36.1832885,20 35.412844,19.2450568 35.412844,18.3139269 C35.412844,17.584795 35.8851694,16.9637745 36.5463389,16.7285828 L36.546261,7.9943462 C35.3154012,8.04759271 34.1708353,8.26827909 33.1539161,8.63406292 L33.1539669,15.330181 C33.8151365,15.5653727 34.2874618,16.1863932 34.2874618,16.9155251 C34.2874618,17.846655 33.5170173,18.6015982 32.5667686,18.6015982 C31.6165199,18.6015982 30.8460754,17.846655 30.8460754,16.9155251 C30.8460754,16.1863932 31.3184007,15.5653727 31.9795703,15.330181 L31.9795295,9.15072808 C30.8488899,9.74966854 29.943093,10.5603021 29.3424352,11.5392458 C29.7499898,11.8990932 30.0061162,12.4202244 30.0061162,13 C30.0061162,14.0856253 29.1079164,14.9657534 28,14.9657534 C27.9090215,14.9657534 27.8194571,14.9598186 27.7316881,14.9483224 C26.2037544,17.551575 22.927502,19.1283184 19.0185143,19.1681756 L18.8664628,19.1689498 L12.587156,19.1689498 C12.2628787,19.1689498 12,18.9113602 12,18.5936073 C12,18.2872028 12.2444369,18.0367408 12.5526561,18.0192415 L12.587156,18.0182648 L13.7125382,18.0182009 L13.71254,9.27141928 C13.0513625,9.03621805 12.579001,8.4151558 12.579001,7.68607306 C12.579001,6.75486641 13.3494097,6 14.2996942,6 C15.2499787,6 16.0203874,6.75486641 16.0203874,7.68607306 C16.0203874,8.41508382 15.5481192,9.03609542 14.8870442,9.2713496 L14.8868502,18.0182009 L18.2792416,18.0182009 L18.2792788,9.27140867 C17.6181169,9.03619939 17.1457696,8.41514485 17.1457696,7.68607306 C17.1457696,6.75486641 17.9161783,6 18.8664628,6 Z" id="路径" fill="#FFFFFF"></path>
            <path d="M54.528,19 L56.016,13.432 L57.072,9.336 L57.104,9.336 L58.128,13.432 L59.584,19 L61.072,19 L63.936,7.832 L62.56,7.832 L61.296,13.208 L60.336,17.368 L60.288,17.368 L59.248,13.208 L57.888,7.832 L56.352,7.832 L54.944,13.208 L53.904,17.384 L53.872,17.384 L52.944,13.208 L51.744,7.832 L50.32,7.832 L53.04,19 L54.528,19 Z M68.496,19.192 C69.0506667,19.192 69.5546667,19.0906667 70.008,18.888 C70.4613333,18.6853333 70.8533333,18.3946667 71.184,18.016 C71.5146667,17.6373333 71.7706667,17.184 71.952,16.656 C72.1333333,16.128 72.224,15.5333333 72.224,14.872 C72.224,14.2213333 72.1333333,13.6293333 71.952,13.096 C71.7706667,12.5626667 71.5146667,12.1066667 71.184,11.728 C70.8533333,11.3493333 70.4613333,11.0586667 70.008,10.856 C69.5546667,10.6533333 69.0506667,10.552 68.496,10.552 C67.9413333,10.552 67.4346667,10.6533333 66.976,10.856 C66.5173333,11.0586667 66.1253333,11.3493333 65.8,11.728 C65.4746667,12.1066667 65.2213333,12.5626667 65.04,13.096 C64.8586667,13.6293333 64.768,14.2213333 64.768,14.872 C64.768,15.5333333 64.8586667,16.128 65.04,16.656 C65.2213333,17.184 65.4746667,17.6373333 65.8,18.016 C66.1253333,18.3946667 66.5173333,18.6853333 66.976,18.888 C67.4346667,19.0906667 67.9413333,19.192 68.496,19.192 Z M68.496,18.056 C67.8026667,18.056 67.2373333,17.8426667 66.8,17.416 C66.3626667,16.9893333 66.144,16.3386667 66.144,15.464 L66.144,15.464 L66.144,14.28 C66.144,13.4053333 66.3626667,12.7546667 66.8,12.328 C67.2373333,11.9013333 67.8026667,11.688 68.496,11.688 C69.1893333,11.688 69.7546667,11.9013333 70.192,12.328 C70.6293333,12.7546667 70.848,13.4053333 70.848,14.28 L70.848,14.28 L70.848,15.464 C70.848,16.3386667 70.6293333,16.9893333 70.192,17.416 C69.7546667,17.8426667 69.1893333,18.056 68.496,18.056 Z M75.616,19 L75.616,13.4 C75.616,13.0053333 75.8106667,12.6773333 76.2,12.416 C76.5893333,12.1546667 77.1306667,12.024 77.824,12.024 L77.824,12.024 L78.576,12.024 L78.576,10.744 L78.08,10.744 C77.408,10.744 76.88,10.8986667 76.496,11.208 C76.112,11.5173333 75.8453333,11.8693333 75.696,12.264 L75.696,12.264 L75.616,12.264 L75.616,10.744 L74.336,10.744 L74.336,19 L75.616,19 Z M81.488,19 L81.488,13.272 C81.488,13.0053333 81.544,12.7733333 81.656,12.576 C81.768,12.3786667 81.9146667,12.216 82.096,12.088 C82.2773333,11.96 82.4853333,11.864 82.72,11.8 C82.9546667,11.736 83.2,11.704 83.456,11.704 C84.064,11.704 84.512,11.8906667 84.8,12.264 C85.088,12.6373333 85.232,13.192 85.232,13.928 L85.232,13.928 L85.232,19 L86.512,19 L86.512,13.272 C86.512,13.0053333 86.5653333,12.7733333 86.672,12.576 C86.7786667,12.3786667 86.9226667,12.216 87.104,12.088 C87.2853333,11.96 87.4906667,11.864 87.72,11.8 C87.9493333,11.736 88.192,11.704 88.448,11.704 C89.0773333,11.704 89.536,11.8906667 89.824,12.264 C90.112,12.6373333 90.256,13.192 90.256,13.928 L90.256,13.928 L90.256,19 L91.536,19 L91.536,13.704 C91.536,12.7013333 91.2986667,11.9253333 90.824,11.376 C90.3493333,10.8266667 89.6906667,10.552 88.848,10.552 C88.144,10.552 87.5866667,10.72 87.176,11.056 C86.7653333,11.392 86.4853333,11.784 86.336,12.232 L86.336,12.232 L86.304,12.232 C86.08,11.6346667 85.7386667,11.2053333 85.28,10.944 C84.8213333,10.6826667 84.32,10.552 83.776,10.552 C83.456,10.552 83.1786667,10.592 82.944,10.672 C82.7093333,10.752 82.504,10.8613333 82.328,11 C82.152,11.1386667 82.0026667,11.3013333 81.88,11.488 C81.7573333,11.6746667 81.648,11.8746667 81.552,12.088 L81.552,12.088 L81.488,12.088 L81.488,10.744 L80.208,10.744 L80.208,19 L81.488,19 Z M95.456,19 L95.456,13.272 C95.456,13.0053333 95.512,12.7733333 95.624,12.576 C95.736,12.3786667 95.888,12.216 96.08,12.088 C96.272,11.96 96.488,11.864 96.728,11.8 C96.968,11.736 97.216,11.704 97.472,11.704 C98.72,11.704 99.344,12.4453333 99.344,13.928 L99.344,13.928 L99.344,19 L100.624,19 L100.624,13.704 C100.624,12.7013333 100.376,11.9253333 99.88,11.376 C99.384,10.8266667 98.7093333,10.552 97.856,10.552 C97.2373333,10.552 96.744,10.6906667 96.376,10.968 C96.008,11.2453333 95.7226667,11.6186667 95.52,12.088 L95.52,12.088 L95.456,12.088 L95.456,7.16 L94.176,7.16 L94.176,19 L95.456,19 Z M106.384,19.192 C106.938667,19.192 107.442667,19.0906667 107.896,18.888 C108.349333,18.6853333 108.741333,18.3946667 109.072,18.016 C109.402667,17.6373333 109.658667,17.184 109.84,16.656 C110.021333,16.128 110.112,15.5333333 110.112,14.872 C110.112,14.2213333 110.021333,13.6293333 109.84,13.096 C109.658667,12.5626667 109.402667,12.1066667 109.072,11.728 C108.741333,11.3493333 108.349333,11.0586667 107.896,10.856 C107.442667,10.6533333 106.938667,10.552 106.384,10.552 C105.829333,10.552 105.322667,10.6533333 104.864,10.856 C104.405333,11.0586667 104.013333,11.3493333 103.688,11.728 C103.362667,12.1066667 103.109333,12.5626667 102.928,13.096 C102.746667,13.6293333 102.656,14.2213333 102.656,14.872 C102.656,15.5333333 102.746667,16.128 102.928,16.656 C103.109333,17.184 103.362667,17.6373333 103.688,18.016 C104.013333,18.3946667 104.405333,18.6853333 104.864,18.888 C105.322667,19.0906667 105.829333,19.192 106.384,19.192 Z M106.384,18.056 C105.690667,18.056 105.125333,17.8426667 104.688,17.416 C104.250667,16.9893333 104.032,16.3386667 104.032,15.464 L104.032,15.464 L104.032,14.28 C104.032,13.4053333 104.250667,12.7546667 104.688,12.328 C105.125333,11.9013333 105.690667,11.688 106.384,11.688 C107.077333,11.688 107.642667,11.9013333 108.08,12.328 C108.517333,12.7546667 108.736,13.4053333 108.736,14.28 L108.736,14.28 L108.736,15.464 C108.736,16.3386667 108.517333,16.9893333 108.08,17.416 C107.642667,17.8426667 107.077333,18.056 106.384,18.056 Z M114.72,19 L114.72,17.88 L113.504,17.88 L113.504,7.16 L112.224,7.16 L112.224,17.672 C112.224,18.056 112.338667,18.3733333 112.568,18.624 C112.797333,18.8746667 113.136,19 113.584,19 L113.584,19 L114.72,19 Z M119.68,19.192 C120.458667,19.192 121.130667,19.0186667 121.696,18.672 C122.261333,18.3253333 122.677333,17.8693333 122.944,17.304 L122.944,17.304 L122.032,16.648 C121.818667,17.1066667 121.517333,17.4586667 121.128,17.704 C120.738667,17.9493333 120.282667,18.072 119.76,18.072 C119.376,18.072 119.032,18.008 118.728,17.88 C118.424,17.752 118.168,17.576 117.96,17.352 C117.752,17.128 117.592,16.864 117.48,16.56 C117.368,16.256 117.312,15.928 117.312,15.576 L117.312,15.576 L117.312,15.192 L123.248,15.192 L123.248,14.584 C123.248,13.9973333 123.165333,13.4586667 123,12.968 C122.834667,12.4773333 122.597333,12.0533333 122.288,11.696 C121.978667,11.3386667 121.605333,11.0586667 121.168,10.856 C120.730667,10.6533333 120.234667,10.552 119.68,10.552 C119.114667,10.552 118.605333,10.6533333 118.152,10.856 C117.698667,11.0586667 117.309333,11.3493333 116.984,11.728 C116.658667,12.1066667 116.408,12.5626667 116.232,13.096 C116.056,13.6293333 115.968,14.2213333 115.968,14.872 C115.968,15.5333333 116.056,16.128 116.232,16.656 C116.408,17.184 116.658667,17.6373333 116.984,18.016 C117.309333,18.3946667 117.698667,18.6853333 118.152,18.888 C118.605333,19.0906667 119.114667,19.192 119.68,19.192 Z M121.872,14.232 L117.312,14.232 L117.312,14.12 C117.312,13.7573333 117.370667,13.424 117.488,13.12 C117.605333,12.816 117.768,12.552 117.976,12.328 C118.184,12.104 118.432,11.9306667 118.72,11.808 C119.008,11.6853333 119.328,11.624 119.68,11.624 C120.341333,11.624 120.872,11.8453333 121.272,12.288 C121.672,12.7306667 121.872,13.32 121.872,14.056 L121.872,14.056 L121.872,14.232 Z" id="Wormhole" fill="#FFFFFF" fill-rule="nonzero"></path>
        </g>
    </g>
</svg>