<svg width="36" height="36" viewBox="0 0 36 36" fill="none" xmlns="http://www.w3.org/2000/svg">
<path d="M23.3976 15.1781C23.3976 15.4081 23.2079 15.5944 22.9738 15.5944H19.5835C19.3494 15.5944 19.1597 15.4081 19.1597 15.1781V12.4722C19.1597 12.2422 19.3494 12.0558 19.5835 12.0558H22.9738C23.2079 12.0558 23.3976 12.2422 23.3976 12.4722V15.1781Z" fill="white"/>
<path d="M15.7514 23.8949C15.7514 24.1249 15.5616 24.3112 15.3276 24.3112H11.9372C11.7032 24.3112 11.5134 24.1249 11.5134 23.8949V21.189C11.5134 20.959 11.7032 20.7726 11.9372 20.7726H15.3276C15.5616 20.7726 15.7514 20.959 15.7514 21.189V23.8949Z" fill="white"/>
<path fill-rule="evenodd" clip-rule="evenodd" d="M0 18V17.9976C0.00132155 8.05741 8.05981 0 18 0C27.9411 0 36 8.05888 36 18C36 27.9411 27.9411 36 18 36C8.05888 36 0 27.9411 0 18ZM25.0928 16.427V11.2231C25.0928 10.7633 24.7133 10.3905 24.2452 10.3905H18.3122C17.8441 10.3905 17.4646 10.7633 17.4646 11.2231V16.4269C17.4646 16.8868 17.8441 17.2595 18.3122 17.2595H24.2452C24.7133 17.2596 25.0928 16.8868 25.0928 16.427ZM10.6657 19.1074H16.5988C17.0669 19.1074 17.4464 19.4802 17.4463 19.94V25.1438C17.4463 25.6036 17.0669 25.9764 16.5988 25.9764H10.6657C10.1976 25.9764 9.81812 25.6036 9.81812 25.1438V19.94C9.81812 19.4802 10.1976 19.1074 10.6657 19.1074ZM13.9807 14.9384L11.6661 17.5954L9.35156 14.9384H10.8768L10.8766 14.9173C10.8766 12.4237 12.8537 10.4022 15.2927 10.4022H15.9223V12.2295H15.2927C13.8249 12.2295 12.6342 13.4404 12.6231 14.9384H13.9807ZM25.9763 21.4403L23.6617 18.7832L21.3472 21.4403H22.7047C22.6936 22.9382 21.5029 24.1492 20.0351 24.1492H19.4055V25.9764H20.0351C22.4741 25.9764 24.4513 23.9549 24.4513 21.4613L24.451 21.4403L25.9763 21.4403Z" fill="white" />
</svg>
