<?xml version="1.0" encoding="UTF-8"?>
<svg width="200px" height="200px" viewBox="0 0 200 200" version="1.1" xmlns="http://www.w3.org/2000/svg" xmlns:xlink="http://www.w3.org/1999/xlink">
    <title>WCKTON@svg</title>
    <defs>
        <linearGradient x1="100%" y1="100%" x2="0%" y2="1.11022302e-14%" id="linearGradient-1">
            <stop stop-color="#24000B" offset="0%"></stop>
            <stop stop-color="#080089" offset="100%"></stop>
        </linearGradient>
        <linearGradient x1="28.3342361%" y1="5.92008829%" x2="82.3929787%" y2="89.1401291%" id="linearGradient-2">
            <stop stop-color="#D1359A" offset="0%"></stop>
            <stop stop-color="#6323CA" offset="100%"></stop>
        </linearGradient>
        <linearGradient x1="13.0729437%" y1="3.49161625%" x2="77.481246%" y2="94.6132183%" id="linearGradient-3">
            <stop stop-color="#6B25C7" offset="0%"></stop>
            <stop stop-color="#CC349C" offset="100%"></stop>
        </linearGradient>
        <linearGradient x1="6.55040337%" y1="50%" x2="109.348603%" y2="50%" id="linearGradient-4">
            <stop stop-color="#FE3876" offset="0%"></stop>
            <stop stop-color="#7C30DD" offset="71.4447846%"></stop>
            <stop stop-color="#3A30DD" offset="100%"></stop>
        </linearGradient>
        <linearGradient x1="35.9155703%" y1="38.7494513%" x2="71.4870185%" y2="50%" id="linearGradient-5">
            <stop stop-color="#6330DD" offset="0%"></stop>
            <stop stop-color="#7C30DD" offset="28.5552154%"></stop>
            <stop stop-color="#FE3876" offset="100%"></stop>
        </linearGradient>
    </defs>
    <g id="WCKTON" stroke="none" stroke-width="1" fill="none" fill-rule="evenodd">
        <g id="token-icon-wckton" transform="translate(10.000000, 10.000000)">
            <g id="椭圆形">
                <circle stroke="url(#linearGradient-2)" stroke-width="22.406639" fill="url(#linearGradient-1)" cx="90" cy="90" r="84.3983402"></circle>
                <circle stroke="url(#linearGradient-3)" stroke-width="11.2033195" cx="90" cy="90" r="90"></circle>
                <circle stroke-opacity="0.113680753" stroke="#000000" stroke-width="22.406639" cx="90" cy="90" r="84.3983402"></circle>
            </g>
            <g id="cKTON" transform="translate(34.501332, 52.282158)" fill-rule="nonzero">
                <polygon id="形状结合" fill="url(#linearGradient-4)" points="18.2447962 43.0066247 39.2466844 51.7103466 55.6400485 71.1657246 97.1357517 21.5033124 88.426777 10.7516562 26.9573978 10.7516562 2.32179421e-15 21.5033124 18.0543115 0 93.3469317 0 111.23141 21.5033124 69.7547085 70.903505 55.7364176 87.6604489"></polygon>
                <polygon id="形状结合" fill="url(#linearGradient-5)" points="39.2466844 51.7103466 18.2447962 43.0066247 46.3323187 43.0066247 55.7109472 54.1768974 83.1438872 21.5033124 2.32179421e-15 21.5033124 26.9573978 10.7516562 88.426777 10.7516562 97.1357517 21.5033124 55.6400485 71.1657246"></polygon>
            </g>
        </g>
    </g>
</svg>