<svg width="36" height="36" viewBox="0 0 36 36" fill="none" xmlns="http://www.w3.org/2000/svg">
<path d="M26.9607 14.3597L24.3121 11.8452L19.7141 15.6627L26.9607 14.3597Z" fill="white"/>
<path d="M18.1433 15.4112L10.5068 9.09065L22.9935 11.3766L18.1433 15.4112Z" fill="white"/>
<path d="M16.3547 26.7836L17.6045 16.5199L9.64697 9.93642L16.3547 26.7836Z" fill="white"/>
<path d="M18.7511 17.0685L26.7774 15.617L17.5701 26.7951L18.7511 17.0685Z" fill="white"/>
<path fill-rule="evenodd" clip-rule="evenodd" d="M0 18V17.9976C0.00132155 8.05741 8.05981 0 18 0C27.9411 0 36 8.05888 36 18C36 27.9411 27.9411 36 18 36C8.05888 36 0 27.9411 0 18ZM7.27344 7.27338L24.5874 10.4508L29.0936 14.714L16.3891 30.1326L7.27344 7.27338Z" fill="white"/>
</svg>
