<svg width="23" height="17" viewBox="0 0 23 17" fill="none" xmlns="http://www.w3.org/2000/svg">
<path d="M15.6384 0.0230394L15.0564 0.0912773C14.6998 0.159515 14.3431 0.261872 14.0052 0.381288V0.381288C12.6703 0.911614 11.6844 1.97794 11.3396 3.26433C11.1519 3.92965 11.1519 4.62909 11.3396 5.27735C10.6263 5.27735 9.913 5.19205 9.23722 5.02146V5.02146C7.12969 4.59397 5.16178 3.72339 3.49153 2.4796C2.9778 2.11346 2.51127 1.6957 2.10086 1.23426V1.23426C1.94251 1.09241 1.79805 0.93829 1.66911 0.773659L1.66911 0.773659C1.44947 1.12242 1.27918 1.49498 1.16228 1.88252L1.16228 1.88252C0.807164 3.26256 1.19766 4.71377 2.21349 5.78914C2.45753 6.06209 2.83296 6.23269 3.07699 6.47152C2.86299 6.50555 2.6429 6.4879 2.43875 6.42034H2.43875C2.09763 6.36914 1.76391 6.2833 1.44386 6.16445L0.93702 5.99385V5.99385C0.878884 7.49772 1.72821 8.9106 3.15208 9.6787C3.6026 9.98577 4.12821 10.1734 4.69136 10.2417C4.39101 10.4805 3.05822 10.3781 2.58893 10.327C3.05822 11.6235 4.16575 12.63 5.57519 13.0735C6.02571 13.2271 6.495 13.2953 6.96429 13.2953C6.57442 13.5923 6.14569 13.8444 5.68782 14.0459C4.80546 14.4835 3.85655 14.7997 2.87207 14.9842C2.44032 15.0695 1.98979 15.0524 1.50173 15.1207H1.50173C1.00062 15.1548 0.49689 15.1376 0 15.0695L0.412978 15.2913C0.844727 15.5301 1.27648 15.7348 1.74577 15.9054C2.64681 16.2466 3.56662 16.5195 4.50521 16.7243C6.72026 17.1507 9.03073 17.0825 11.2082 16.5195C16.128 15.1207 19.2441 11.8452 20.4283 7.01742C20.616 6.11327 20.6911 5.175 20.6535 4.25379L21.4044 3.69083C22.0284 3.21209 22.5667 2.64808 23 2.019C22.1526 2.35932 21.2543 2.58353 20.3344 2.68432C20.5221 2.59902 20.6911 2.47961 20.86 2.34313C21.5734 1.81429 22.099 1.11485 22.3805 0.330118L21.7986 0.620128C21.0367 0.988389 20.2115 1.23643 19.3583 1.35368C18.403 0.432184 17.0499 -0.0607081 15.6587 0.00599045V0.0230499H15.6384L15.6384 0.0230394Z" fill="#808390"/>
</svg>
