<svg width="139" height="26" viewBox="0 0 139 26" fill="none" xmlns="http://www.w3.org/2000/svg">
  <path opacity="0.6" fill-rule="evenodd" clip-rule="evenodd" d="M21.4192 0.617188V13.0002L0 25.3832V13.0002L21.4192 0.617188ZM42.8385 0.617188V13.0002L21.4192 25.3832V13.0002L42.8385 0.617188Z" fill="white"/>
  <path fill-rule="evenodd" clip-rule="evenodd" d="M0 0.617188L21.4192 13.0002V25.3832L0 13.0002V0.617188ZM21.4192 0.617188L42.8385 13.0002V25.3832L21.4192 13.0002V0.617188Z" fill="white"/>
  <path d="M54.3184 6.2H56.8784V12.3H56.9784C57.1917 11.74 57.525 11.2733 57.9784 10.9C58.445 10.5133 59.085 10.32 59.8984 10.32C60.9784 10.32 61.805 10.6733 62.3784 11.38C62.9517 12.0867 63.2384 13.0933 63.2384 14.4V21H60.6784V14.66C60.6784 13.9133 60.545 13.3533 60.2784 12.98C60.0117 12.6067 59.5717 12.42 58.9584 12.42C58.6917 12.42 58.4317 12.46 58.1784 12.54C57.9384 12.6067 57.7184 12.7133 57.5184 12.86C57.3317 12.9933 57.1784 13.1667 57.0584 13.38C56.9384 13.58 56.8784 13.82 56.8784 14.1V21H54.3184V6.2ZM70.2962 21.24C69.5229 21.24 68.8295 21.1133 68.2162 20.86C67.6162 20.5933 67.1029 20.2267 66.6762 19.76C66.2629 19.28 65.9429 18.7067 65.7162 18.04C65.4895 17.36 65.3762 16.6 65.3762 15.76C65.3762 14.9333 65.4829 14.1867 65.6962 13.52C65.9229 12.8533 66.2429 12.2867 66.6562 11.82C67.0695 11.34 67.5762 10.9733 68.1762 10.72C68.7762 10.4533 69.4562 10.32 70.2162 10.32C71.0295 10.32 71.7362 10.46 72.3362 10.74C72.9362 11.02 73.4295 11.4 73.8162 11.88C74.2029 12.36 74.4895 12.92 74.6762 13.56C74.8762 14.1867 74.9762 14.86 74.9762 15.58V16.42H68.0362V16.68C68.0362 17.44 68.2495 18.0533 68.6762 18.52C69.1029 18.9733 69.7362 19.2 70.5762 19.2C71.2162 19.2 71.7362 19.0667 72.1362 18.8C72.5495 18.5333 72.9162 18.1933 73.2362 17.78L74.6162 19.32C74.1895 19.92 73.6029 20.3933 72.8562 20.74C72.1229 21.0733 71.2695 21.24 70.2962 21.24ZM70.2562 12.24C69.5762 12.24 69.0362 12.4667 68.6362 12.92C68.2362 13.3733 68.0362 13.96 68.0362 14.68V14.84H72.3162V14.66C72.3162 13.94 72.1362 13.36 71.7762 12.92C71.4295 12.4667 70.9229 12.24 70.2562 12.24ZM79.7885 21C78.9085 21 78.2619 20.78 77.8485 20.34C77.4352 19.9 77.2285 19.28 77.2285 18.48V6.2H79.7885V18.96H81.1685V21H79.7885ZM84.3874 9.04C83.8541 9.04 83.4674 8.92 83.2274 8.68C83.0008 8.44 82.8874 8.13333 82.8874 7.76V7.36C82.8874 6.98667 83.0008 6.68 83.2274 6.44C83.4674 6.2 83.8541 6.08 84.3874 6.08C84.9074 6.08 85.2874 6.2 85.5274 6.44C85.7674 6.68 85.8874 6.98667 85.8874 7.36V7.76C85.8874 8.13333 85.7674 8.44 85.5274 8.68C85.2874 8.92 84.9074 9.04 84.3874 9.04ZM83.1074 10.56H85.6674V21H83.1074V10.56ZM87.5348 21L91.0948 15.7L87.6148 10.56H90.5348L92.6948 14.02H92.7748L94.9148 10.56H97.6348L94.0948 15.74L97.6548 21H94.7348L92.5348 17.4H92.4548L90.2548 21H87.5348ZM101.014 21.22C100.467 21.22 100.06 21.0867 99.7937 20.82C99.5404 20.54 99.4137 20.1867 99.4137 19.76V19.4C99.4137 18.9733 99.5404 18.62 99.7937 18.34C100.06 18.06 100.467 17.92 101.014 17.92C101.574 17.92 101.98 18.06 102.234 18.34C102.487 18.62 102.614 18.9733 102.614 19.4V19.76C102.614 20.1867 102.487 20.54 102.234 20.82C101.98 21.0867 101.574 21.22 101.014 21.22ZM105.49 6.2H108.05V12.28H108.13C108.317 11.68 108.67 11.2067 109.19 10.86C109.71 10.5 110.317 10.32 111.01 10.32C112.344 10.32 113.357 10.7933 114.05 11.74C114.757 12.6733 115.11 14.0133 115.11 15.76C115.11 17.52 114.757 18.8733 114.05 19.82C113.357 20.7667 112.344 21.24 111.01 21.24C110.317 21.24 109.71 21.06 109.19 20.7C108.684 20.34 108.33 19.86 108.13 19.26H108.05V21H105.49V6.2ZM110.19 19.12C110.857 19.12 111.397 18.9 111.81 18.46C112.224 18.02 112.43 17.4267 112.43 16.68V14.88C112.43 14.1333 112.224 13.54 111.81 13.1C111.397 12.6467 110.857 12.42 110.19 12.42C109.577 12.42 109.064 12.5733 108.65 12.88C108.25 13.1867 108.05 13.5933 108.05 14.1V17.42C108.05 17.9667 108.25 18.3867 108.65 18.68C109.064 18.9733 109.577 19.12 110.19 19.12ZM121.622 21.24C120.876 21.24 120.202 21.1133 119.602 20.86C119.016 20.6067 118.509 20.24 118.082 19.76C117.669 19.28 117.349 18.7067 117.122 18.04C116.896 17.36 116.782 16.6 116.782 15.76C116.782 14.92 116.896 14.1667 117.122 13.5C117.349 12.8333 117.669 12.2667 118.082 11.8C118.509 11.32 119.016 10.9533 119.602 10.7C120.202 10.4467 120.876 10.32 121.622 10.32C122.369 10.32 123.042 10.4467 123.642 10.7C124.242 10.9533 124.749 11.32 125.162 11.8C125.589 12.2667 125.916 12.8333 126.142 13.5C126.369 14.1667 126.482 14.92 126.482 15.76C126.482 16.6 126.369 17.36 126.142 18.04C125.916 18.7067 125.589 19.28 125.162 19.76C124.749 20.24 124.242 20.6067 123.642 20.86C123.042 21.1133 122.369 21.24 121.622 21.24ZM121.622 19.18C122.302 19.18 122.836 18.9733 123.222 18.56C123.609 18.1467 123.802 17.54 123.802 16.74V14.8C123.802 14.0133 123.609 13.4133 123.222 13C122.836 12.5867 122.302 12.38 121.622 12.38C120.956 12.38 120.429 12.5867 120.042 13C119.656 13.4133 119.462 14.0133 119.462 14.8V16.74C119.462 17.54 119.656 18.1467 120.042 18.56C120.429 18.9733 120.956 19.18 121.622 19.18ZM127.359 21L130.919 15.7L127.439 10.56H130.359L132.519 14.02H132.599L134.739 10.56H137.459L133.919 15.74L137.479 21H134.559L132.359 17.4H132.279L130.079 21H127.359Z" fill="white"/>
</svg>
