<svg t="1701094683911" class="icon" viewBox="0 0 1024 1024" version="1.1"
  xmlns="http://www.w3.org/2000/svg" p-id="33238" width="64" height="64">
  <path d="M0 0h1024v1024H0z" fill="#ffffff" fill-opacity=".01" p-id="33239"></path>
  <path
    d="M915.163429 73.142857a36.571429 36.571429 0 0 1 36.571428 36.571429v292.352a36.571429 36.571429 0 0 1-36.571428 36.571428H621.714286a36.571429 36.571429 0 0 1-36.571429-36.571428v-73.142857a36.571429 36.571429 0 0 1 36.571429-36.571429h100.205714a303.835429 303.835429 0 1 0 24.941714 412.306286c7.68-9.216 16.530286-22.601143 26.697143-39.936a36.571429 36.571429 0 0 1 46.518857-14.994286l57.124572 25.526857a36.571429 36.571429 0 0 1 17.188571 50.980572 411.648 411.648 0 0 1-20.041143 33.499428 438.857143 438.857143 0 1 1-68.754285-573.952l-0.146286-76.068571a36.571429 36.571429 0 0 1 36.571428-36.571429h73.142858z"
    fill="#ffffff" p-id="33240"></path>
</svg>