<svg xmlns="http://www.w3.org/2000/svg" width="20" height="20" viewBox="0 0 20 20" fill="none">
  <path fill-rule="evenodd" clip-rule="evenodd"
    d="M10 1.25C5.16797 1.25 1.25 5.16797 1.25 10C1.25 14.832 5.16797 18.75 10 18.75C14.832 18.75 18.75 14.832 18.75 10C18.75 5.16797 14.832 1.25 10 1.25ZM10 17.2656C5.98828 17.2656 2.73438 14.0117 2.73438 10C2.73438 5.98828 5.98828 2.73438 10 2.73438C14.0117 2.73438 17.2656 5.98828 17.2656 10C17.2656 14.0117 14.0117 17.2656 10 17.2656ZM10.627 10.459L13.4121 12.4727C13.4824 12.5215 13.498 12.6191 13.4473 12.6914L12.8887 13.4531C12.8379 13.5215 12.7402 13.5371 12.6699 13.4863L9.43945 11.1309C9.39844 11.1016 9.375 11.0547 9.375 11.0039V5.625C9.375 5.53906 9.44531 5.46875 9.53125 5.46875H10.4707C10.5566 5.46875 10.627 5.53906 10.627 5.625V10.459Z"
    fill="white" />
</svg>
