<?xml version="1.0" encoding="UTF-8"?>
<svg width="256px" height="256px" viewBox="0 0 256 256" version="1.1"
    xmlns="http://www.w3.org/2000/svg"
    xmlns:xlink="http://www.w3.org/1999/xlink">
    <g id="Crab" stroke="none" stroke-width="1" fill="none" fill-rule="evenodd">
        <circle id="椭圆形" fill="#512DBC" fill-rule="nonzero" cx="128" cy="128" r="128"></circle>
        <g id="Crab-2备份" transform="translate(36.000000, 61.000000)" fill="#FFFFFF">
            <path
                d="M160.833868,20.1515152 C165.28273,20.1515152 168.889245,23.7603714 168.889245,28.2121212 C168.889245,32.5703103 165.43273,36.1206631 161.113226,36.2679709 L151.271262,51.040163 L151.163395,51.1993201 C148.910431,54.4674686 145.193428,56.4242424 141.217543,56.4242424 L141.217543,56.4242424 L129.288565,56.4240304 C130.406052,58.9833043 131.265601,61.6811561 131.83433,64.4846824 L157.199209,64.4848485 L157.32924,64.4827535 C158.626482,64.4409331 159.827547,63.7752117 160.550449,62.6901554 L160.550449,62.6901554 L170.027085,48.4659791 C169.304527,47.2575382 168.889245,45.8439647 168.889245,44.3333333 C168.889245,39.8815835 172.495761,36.2727273 176.944623,36.2727273 C181.393485,36.2727273 185,39.8815835 185,44.3333333 C185,48.7356104 181.473199,52.3136239 177.092629,52.3926062 L167.252928,67.1613751 L167.145061,67.3205322 C164.892097,70.5886808 161.175094,72.5454545 157.199209,72.5454545 L157.199209,72.5454545 L132.640047,72.5454545 L132.640047,72.5454545 C132.640047,75.306138 132.362658,78.0019915 131.834248,80.6066301 L157.199209,80.6060606 C161.175094,80.6060606 164.892097,82.5628344 167.145061,85.8309829 L167.252928,85.99014 L177.092629,100.758909 C181.473199,100.837891 185,104.415905 185,108.818182 C185,113.269932 181.393485,116.878788 176.944623,116.878788 C172.495761,116.878788 168.889245,113.269932 168.889245,108.818182 C168.889245,107.30755 169.304527,105.893977 170.027085,104.685536 L160.550449,90.4613598 C159.827547,89.3763035 158.626482,88.7105821 157.32924,88.6687616 L157.199209,88.6666667 L129.28839,88.6672809 C128.031814,91.5450124 126.449112,94.2475288 124.587033,96.7280534 L141.088455,96.7272727 C145.064339,96.7272727 148.781342,98.6840465 151.034307,101.952195 L151.142173,102.111352 L160.981874,116.880121 C165.362444,116.959103 168.889245,120.537117 168.889245,124.939394 C168.889245,129.391144 165.28273,133 160.833868,133 C156.385006,133 152.77849,129.391144 152.77849,124.939394 C152.77849,123.428763 153.193772,122.015189 153.916331,120.806748 L144.439694,106.582572 C143.716793,105.497516 142.515727,104.831794 141.218485,104.789974 L141.088455,104.787879 L116.53208,104.788735 C109.800041,109.849557 101.431592,112.848485 92.3631599,112.848485 C83.2947278,112.848485 74.9262785,109.849557 68.1942401,104.788735 L43.911545,104.787879 L43.7815143,104.789974 C42.4842723,104.831794 41.2832071,105.497516 40.5603054,106.582572 L40.5603054,106.582572 L31.0839105,120.807152 C31.8063199,122.015503 32.2215096,123.428931 32.2215096,124.939394 C32.2215096,129.391144 28.6149943,133 24.1661322,133 C19.7172701,133 16.1107548,129.391144 16.1107548,124.939394 C16.1107548,120.536991 19.6377583,116.958898 24.0185023,116.880114 L33.8578262,102.111352 L33.965693,101.952195 C36.2186576,98.6840465 39.9356604,96.7272727 43.911545,96.7272727 L43.911545,96.7272727 L60.1392869,96.7280534 C58.2772074,94.2475288 56.6945058,91.5450124 55.4379302,88.6672809 L27.8007903,88.6666667 L27.6707596,88.6687616 C26.3735174,88.7105821 25.1724524,89.3763035 24.4495507,90.4613598 L24.4495507,90.4613598 L14.9731557,104.68594 C15.6955651,105.894291 16.1107548,107.307719 16.1107548,108.818182 C16.1107548,113.269932 12.5042395,116.878788 8.0553774,116.878788 C3.60651531,116.878788 0,113.269932 0,108.818182 C0,104.415779 3.52700351,100.837686 7.90774755,100.758902 L17.7470716,85.99014 L17.8549383,85.8309829 C20.1079028,82.5628344 23.8249058,80.6060606 27.8007903,80.6060606 L27.8007903,80.6060606 L52.892072,80.6066301 C52.3636622,78.0019915 52.0862729,75.306138 52.0862729,72.5454545 L27.8007903,72.5454545 C23.8249058,72.5454545 20.1079028,70.5886808 17.8549383,67.3205322 L17.7470716,67.1613751 L7.90774755,52.392613 C3.52700351,52.3138291 0,48.7357365 0,44.3333333 C0,39.8815835 3.60651531,36.2727273 8.0553774,36.2727273 C12.5042395,36.2727273 16.1107548,39.8815835 16.1107548,44.3333333 C16.1107548,45.8437966 15.6955651,47.2572239 14.9731557,48.4655756 L24.4495507,62.6901554 C25.1724524,63.7752117 26.3735174,64.4409331 27.6707596,64.4827535 L27.8007903,64.4848485 L52.8919903,64.4846824 C53.4607491,61.681009 54.3203577,58.9830218 55.4379302,56.4236282 L43.7824564,56.4242424 C39.8065718,56.4242424 36.089569,54.4674686 33.8366044,51.1993201 L33.7287376,51.040163 L23.8867811,36.2679711 C19.5672734,36.120667 16.1107548,32.5703127 16.1107548,28.2121212 C16.1107548,23.7603714 19.7172701,20.1515152 24.1661322,20.1515152 C28.6149943,20.1515152 32.2215096,23.7603714 32.2215096,28.2121212 C32.2215096,29.7650887 31.7826243,31.2154825 31.0221974,32.4458828 L40.4312168,46.5689432 C41.1541184,47.6539995 42.3551837,48.319721 43.6524257,48.3615414 L43.7824564,48.3636364 L60.1392869,48.3628557 C67.4874887,38.5741232 79.1863802,32.2424242 92.3631599,32.2424242 C105.53994,32.2424242 117.238831,38.5741232 124.587033,48.3628557 L141.217543,48.3636364 L141.347574,48.3615414 C142.644816,48.319721 143.845881,47.6539995 144.568783,46.5689432 L144.568783,46.5689432 L153.977803,32.4458828 C153.217376,31.2154825 152.77849,29.7650887 152.77849,28.2121212 C152.77849,23.7603714 156.385006,20.1515152 160.833868,20.1515152 Z M92.3631599,40.3030303 C74.5677115,40.3030303 60.1416503,54.7384553 60.1416503,72.5454545 C60.1416503,90.3524538 74.5677115,104.787879 92.3631599,104.787879 C110.158608,104.787879 124.58467,90.3524538 124.58467,72.5454545 C124.58467,54.7384553 110.158608,40.3030303 92.3631599,40.3030303 Z M92.3631599,48.3636364 C105.709746,48.3636364 116.529292,59.1902051 116.529292,72.5454545 C116.529292,85.900704 105.709746,96.7272727 92.3631599,96.7272727 C79.0165736,96.7272727 68.1970277,85.900704 68.1970277,72.5454545 C68.1970277,59.1902051 79.0165736,48.3636364 92.3631599,48.3636364 Z M120.556981,0 L120.823402,0.00215978183 C129.598244,0.144522829 136.667736,7.30674751 136.667736,16.1212121 C136.667736,25.0247117 129.454705,32.2424242 120.556981,32.2424242 C111.659257,32.2424242 104.446226,25.0247117 104.446226,16.1212121 C104.446226,11.6694623 106.249484,7.63915929 109.164957,4.72179373 L109.164957,4.72179373 L120.556981,16.1212121 L120.556981,0 Z M64.169339,0 L64.169339,16.1212121 L73.1070428,2.70621258 C77.4318074,5.59706217 80.2800938,10.5262947 80.2800938,16.1212121 C80.2800938,25.0247117 73.0670632,32.2424242 64.169339,32.2424242 C55.2716148,32.2424242 48.0585842,25.0247117 48.0585842,16.1212121 C48.0585842,7.21771252 55.2716148,0 64.169339,0 Z"
                id="形状结合"></path>
        </g>
    </g>
</svg>
