<svg width="24" height="24" viewBox="0 0 24 24" fill="none" xmlns="http://www.w3.org/2000/svg">
  <rect opacity="0.01" width="24" height="24" fill="white" />
  <path fill-rule="evenodd" clip-rule="evenodd"
    d="M5.98959 5.28246C6.38012 4.89193 7.01328 4.89193 7.40381 5.28246L12 9.87865L16.5962 5.28246C16.9867 4.89193 17.6199 4.89193 18.0104 5.28246L18.7175 5.98956C19.108 6.38009 19.108 7.01325 18.7175 7.40378L14.1213 12L18.7175 16.5962C19.108 16.9867 19.108 17.6199 18.7175 18.0104L18.0104 18.7175C17.6199 19.108 16.9867 19.108 16.5962 18.7175L12 14.1213L7.40381 18.7175C7.01328 19.108 6.38012 19.108 5.98959 18.7175L5.28249 18.0104C4.89196 17.6199 4.89196 16.9867 5.28249 16.5962L9.87868 12L5.28249 7.40378C4.89196 7.01325 4.89196 6.38009 5.28249 5.98956L5.98959 5.28246Z"
    fill="white" />
</svg>
