<svg width="144" height="28" viewBox="0 0 144 28" fill="none" xmlns="http://www.w3.org/2000/svg">
  <path opacity="0.6" fill-rule="evenodd" clip-rule="evenodd" d="M23.7314 0.664551V14.0001L0.664551 27.3356V14.0001L23.7314 0.664551ZM46.7983 0.664551V14.0001L23.7314 27.3356V14.0001L46.7983 0.664551Z" fill="#0085FF"/>
  <path fill-rule="evenodd" clip-rule="evenodd" d="M0.664551 0.664551L23.7314 14.0001V27.3356L0.664551 14.0001V0.664551ZM23.7314 0.664551L46.7983 14.0001V27.3356L23.7314 14.0001V0.664551Z" fill="#0085FF"/>
  <path d="M132.437 21.9042L136.27 16.1965L132.523 10.6611H135.667L137.993 14.3873H138.08L140.384 10.6611H143.313L139.501 16.2396L143.335 21.9042H140.19L137.821 18.0273H137.735L135.366 21.9042H132.437Z" fill="white"/>
  <path d="M126.259 22.1628C125.455 22.1628 124.729 22.0264 124.083 21.7536C123.452 21.4808 122.906 21.0859 122.446 20.569C122.001 20.0521 121.657 19.4346 121.413 18.7167C121.168 17.9844 121.046 17.1659 121.046 16.2613C121.046 15.3567 121.168 14.5454 121.413 13.8274C121.657 13.1095 122.001 12.4992 122.446 11.9967C122.906 11.4798 123.452 11.0849 124.083 10.8121C124.729 10.5392 125.455 10.4028 126.259 10.4028C127.063 10.4028 127.788 10.5392 128.434 10.8121C129.08 11.0849 129.626 11.4798 130.071 11.9967C130.53 12.4992 130.882 13.1095 131.126 13.8274C131.37 14.5454 131.493 15.3567 131.493 16.2613C131.493 17.1659 131.37 17.9844 131.126 18.7167C130.882 19.4346 130.53 20.0521 130.071 20.569C129.626 21.0859 129.08 21.4808 128.434 21.7536C127.788 22.0264 127.063 22.1628 126.259 22.1628ZM126.259 19.9444C126.991 19.9444 127.565 19.7218 127.982 19.2767C128.398 18.8316 128.606 18.1782 128.606 17.3167V15.2274C128.606 14.3803 128.398 13.7341 127.982 13.289C127.565 12.8439 126.991 12.6213 126.259 12.6213C125.541 12.6213 124.974 12.8439 124.557 13.289C124.141 13.7341 123.933 14.3803 123.933 15.2274V17.3167C123.933 18.1782 124.141 18.8316 124.557 19.2767C124.974 19.7218 125.541 19.9444 126.259 19.9444Z" fill="white"/>
  <path d="M108.885 5.96631H111.642V12.514H111.728C111.929 11.8678 112.31 11.3581 112.87 10.9848C113.43 10.5971 114.083 10.4032 114.83 10.4032C116.266 10.4032 117.357 10.913 118.104 11.9325C118.865 12.9376 119.245 14.3807 119.245 16.2617C119.245 18.1571 118.865 19.6145 118.104 20.634C117.357 21.6535 116.266 22.1632 114.83 22.1632C114.083 22.1632 113.43 21.9694 112.87 21.5817C112.324 21.194 111.944 20.6771 111.728 20.0309H111.642V21.9048H108.885V5.96631ZM113.947 19.8802C114.665 19.8802 115.246 19.6432 115.691 19.1694C116.137 18.6955 116.359 18.0566 116.359 17.2525V15.314C116.359 14.5099 116.137 13.8709 115.691 13.3971C115.246 12.9089 114.665 12.6648 113.947 12.6648C113.286 12.6648 112.733 12.8299 112.288 13.1602C111.858 13.4904 111.642 13.9284 111.642 14.474V18.0494C111.642 18.6381 111.858 19.0904 112.288 19.4063C112.733 19.7222 113.286 19.8802 113.947 19.8802Z" fill="white"/>
  <path d="M95.9849 21.9042L99.8187 16.1965L96.071 10.6611H99.2156L101.542 14.3873H101.628L103.933 10.6611H106.862L103.049 16.2396L106.883 21.9042H103.739L101.369 18.0273H101.283L98.9141 21.9042H95.9849Z" fill="white"/>
  <path d="M92.5959 9.02412C92.0215 9.02412 91.6051 8.89489 91.3466 8.63643C91.1025 8.37796 90.9805 8.04771 90.9805 7.64566V7.21489C90.9805 6.81284 91.1025 6.48258 91.3466 6.22412C91.6051 5.96566 92.0215 5.83643 92.5959 5.83643C93.1559 5.83643 93.5651 5.96566 93.8235 6.22412C94.082 6.48258 94.2112 6.81284 94.2112 7.21489V7.64566C94.2112 8.04771 94.082 8.37796 93.8235 8.63643C93.5651 8.89489 93.1559 9.02412 92.5959 9.02412ZM91.2174 10.661H93.9743V21.9041H91.2174V10.661Z" fill="white"/>
  <path d="M87.6432 21.9048C86.6955 21.9048 85.9991 21.6678 85.5539 21.194C85.1088 20.7202 84.8862 20.0525 84.8862 19.1909V5.96631H87.6432V19.7078H89.1293V21.9048H87.6432Z" fill="white"/>
  <path d="M77.4205 22.1628C76.5877 22.1628 75.841 22.0264 75.1805 21.7536C74.5344 21.4664 73.9816 21.0716 73.5221 20.569C73.0769 20.0521 72.7323 19.4346 72.4882 18.7167C72.2441 17.9844 72.1221 17.1659 72.1221 16.2613C72.1221 15.371 72.2369 14.5669 72.4667 13.849C72.7108 13.131 73.0554 12.5208 73.5005 12.0182C73.9457 11.5013 74.4913 11.1064 75.1375 10.8336C75.7836 10.5464 76.5159 10.4028 77.3344 10.4028C78.2103 10.4028 78.9713 10.5536 79.6175 10.8551C80.2636 11.1567 80.7949 11.5659 81.2113 12.0828C81.6277 12.5998 81.9364 13.2028 82.1375 13.8921C82.3528 14.5669 82.4605 15.2921 82.4605 16.0674V16.9721H74.9867V17.2521C74.9867 18.0705 75.2164 18.731 75.6759 19.2336C76.1354 19.7218 76.8175 19.9659 77.7221 19.9659C78.4113 19.9659 78.9713 19.8223 79.4021 19.5351C79.8472 19.248 80.2421 18.8818 80.5867 18.4367L82.0728 20.0951C81.6134 20.7413 80.9816 21.251 80.1775 21.6244C79.3877 21.9833 78.4687 22.1628 77.4205 22.1628ZM77.3775 12.4705C76.6451 12.4705 76.0636 12.7146 75.6328 13.2028C75.2021 13.691 74.9867 14.3228 74.9867 15.0982V15.2705H79.5959V15.0767C79.5959 14.3013 79.4021 13.6767 79.0144 13.2028C78.641 12.7146 78.0954 12.4705 77.3775 12.4705Z" fill="white"/>
  <path d="M66.6782 15.5501H60.4105V21.904H57.5674V6.87012H60.4105V13.0301H66.6782V6.87012H69.5212V21.904H66.6782V15.5501Z" fill="white"/>
</svg>
